<?xml version="1.0" standalone="no"?>
<!DOCTYPE svg PUBLIC "-//W3C//DTD SVG 1.1//EN" "http://www.w3.org/Graphics/SVG/1.1/DTD/svg11.dtd" >
<svg xmlns="http://www.w3.org/2000/svg">
<metadata>
This is a custom SVG webfont generated by Font Squirrel.
Copyright   : Copyright c 2007 Monotype Imaging Inc Soho is designed by Sebastian Lester All rights reserved
Designer    : Sebastian Lester
Foundry     : Sebastian Lester
Foundry URL : httpwwwmonotypeimagingcom
</metadata>
<defs>
<font id="SohoStdRegular" horiz-adv-x="1437" >
<font-face units-per-em="2048" ascent="1585" descent="-463" />
<missing-glyph horiz-adv-x="391" />
<glyph unicode=" "  horiz-adv-x="391" />
<glyph unicode="&#x09;" horiz-adv-x="391" />
<glyph unicode="&#xa0;" horiz-adv-x="391" />
<glyph unicode="!" horiz-adv-x="514" d="M158 1585h198l-18 -1190h-160zM164 0v276h186v-276h-186z" />
<glyph unicode="&#x22;" horiz-adv-x="692" d="M41 1063h137l74 491h-186zM440 1063l25 491h186l-73 -491h-138z" />
<glyph unicode="#" horiz-adv-x="1517" d="M172 403v158h219l41 383h-260v156h279l47 422h164l-46 -422h342l50 422h163l-45 -422h217v-156h-235l-41 -383h276v-158h-294l-45 -403h-164l43 403h-344l-43 -403h-166l45 403h-203zM557 561h344l41 383h-344z" />
<glyph unicode="$" horiz-adv-x="1269" d="M147 1178q0 322 394 360v213h178v-207q215 -6 348 -39v-293h-145l-23 160q-127 10 -244 10q-160 0 -237.5 -46t-77.5 -158q0 -88 44 -145.5t161 -108.5l262 -115q158 -70 235.5 -170t77.5 -254q0 -172 -102.5 -276.5t-298.5 -124.5v-230h-178v221q-238 10 -359 41v303 h146l20 -174q127 -8 262 -8q319 0 320 248q0 94 -44 152.5t-163 111.5l-262 117q-160 72 -237 166t-77 246z" />
<glyph unicode="%" horiz-adv-x="2187" d="M119 1012v112q0 420 360 420q358 0 359 -420v-112q0 -420 -359 -420q-188 0 -274 113.5t-86 306.5zM283 1012q0 -154 47 -217.5t149.5 -63.5t148.5 63.5t46 217.5v112q0 154 -46 217.5t-149 63.5q-100 0 -148 -65.5t-48 -215.5v-112zM512 0l971 1522h184l-971 -1522h-184 zM1346 397v117q0 205 93 310.5t267 105.5t267 -105.5t93 -310.5v-117q0 -205 -93 -311t-267 -106t-267 106t-93 311zM1509 397q0 -156 52.5 -217t144.5 -61t144.5 61.5t52.5 216.5v117q0 154 -52.5 215.5t-144.5 61.5t-144.5 -61.5t-52.5 -215.5v-117z" />
<glyph unicode="&#x26;" horiz-adv-x="1513" d="M123 365v14q0 131 66.5 222t216.5 179l-15 17q-111 113 -162 199.5t-51 205.5v8q0 336 445 336q258 0 424 -41v-293h-146l-22 162q-82 8 -248 8q-129 0 -195.5 -36.5t-66.5 -135.5v-8q0 -82 36.5 -143.5t143.5 -169.5l516 -518q70 141 70 379l-113 12v141h399v-141 l-112 -12q0 -303 -123 -500l217 -217v-33h-221l-115 115q-170 -143 -449 -144q-219 0 -357 95.5t-138 298.5zM315 365q0 -119 85 -176.5t216 -57.5q215 0 336 98l-430 435q-115 -63 -161 -123t-46 -162v-14z" />
<glyph unicode="'" horiz-adv-x="292" d="M41 1063l25 491h186l-74 -491h-137z" />
<glyph unicode="(" horiz-adv-x="729" d="M143 541v14q0 309 97.5 557t230.5 410h178q-158 -211 -239.5 -441.5t-81.5 -525.5v-14q0 -295 82 -523.5t239 -441.5h-178q-133 162 -230.5 410t-97.5 555z" />
<glyph unicode=")" horiz-adv-x="729" d="M78 -424q158 211 240.5 440.5t82.5 524.5v14q0 297 -82.5 526.5t-240.5 440.5h180q131 -160 228.5 -409t97.5 -558v-14q0 -309 -97.5 -557t-228.5 -408h-180z" />
<glyph unicode="*" horiz-adv-x="1089" d="M139 1231l49 153l144 -47q82 -27 143 -55q-10 86 -10 152v151h160v-151q0 -76 -13 -156q61 31 146 57l143 49l49 -153l-143 -47q-78 -25 -152 -39q47 -45 101 -117l88 -121l-129 -94l-88 121q-51 74 -84 131q-20 -39 -82 -129l-86 -123l-131 94l88 123q41 59 98 117 q-68 14 -147 39z" />
<glyph unicode="+" d="M205 725v149h440v441h150v-441h436v-149h-436v-440h-150v440h-440z" />
<glyph unicode="," horiz-adv-x="567" d="M51 -182l191 465h215l-238 -465h-168z" />
<glyph unicode="-" horiz-adv-x="811" d="M152 522v154h505v-154h-505z" />
<glyph unicode="." horiz-adv-x="516" d="M166 0v283h184v-283h-184z" />
<glyph unicode="/" horiz-adv-x="841" d="M20 0l625 1522h176l-622 -1522h-179z" />
<glyph unicode="0" horiz-adv-x="1306" d="M119 612v293q0 315 138 478t396 163t396.5 -162.5t138.5 -478.5v-293q0 -315 -138.5 -478t-396.5 -163t-396 163t-138 478zM307 612q0 -479 346 -479t346 479v293q0 479 -346 479t-346 -479v-293z" />
<glyph unicode="1" horiz-adv-x="1144" d="M125 1227v164l405 143h138v-1368l352 -12v-154h-893v154l354 12v1175z" />
<glyph unicode="2" horiz-adv-x="1208" d="M131 0v193q0 166 49 276.5t142.5 187t273.5 174.5q186 100 246.5 171t60.5 176q0 117 -77.5 161.5t-268.5 44.5q-111 0 -244 -10l-20 -162h-143v287q236 47 417 47q268 0 396.5 -88t128.5 -280q0 -147 -84 -257t-308 -229q-240 -129 -312.5 -222t-72.5 -275v-29h592 l23 153h143v-319h-942z" />
<glyph unicode="3" horiz-adv-x="1222" d="M154 25v292h145l20 -174q123 -10 248 -10q184 0 265 57.5t81 221.5v51q0 121 -49 183.5t-207 62.5h-440v157h440q156 0 206 65.5t50 188.5v27q0 135 -73.5 186t-274.5 51q-96 0 -239 -8l-21 -164h-145v289q195 45 409 45q276 0 404.5 -90t128.5 -309v-27 q0 -242 -184 -332q184 -92 184 -325v-51q0 -240 -134 -340.5t-399 -100.5q-194 1 -415 54z" />
<glyph unicode="4" horiz-adv-x="1337" d="M96 401v193l695 928h215v-957h231v-164h-231v-241l110 -10v-150h-409v150l110 10v241h-721zM285 565h532v703z" />
<glyph unicode="5" horiz-adv-x="1198" d="M104 20v297h146l20 -172q160 -12 250 -12q205 0 289 64.5t84 226.5v59q0 156 -76 215.5t-297 59.5h-385l66 764h823v-310h-143l-21 142h-500l-38 -434h206q291 0 421 -102.5t130 -334.5v-59q0 -240 -138 -346.5t-417 -106.5q-195 0 -420 49z" />
<glyph unicode="6" horiz-adv-x="1292" d="M119 575v396q0 293 129 434t440 141q205 0 416 -45v-289h-146l-20 164q-147 8 -246 8q-129 0 -209 -27.5t-116.5 -89t-48 -126t-11.5 -170.5v-72q164 47 357 47q86 0 152.5 -8t136 -33.5t114.5 -68.5t74.5 -119t29.5 -178v-86q0 -119 -36.5 -209t-90 -140.5t-126 -82 t-133 -41t-124.5 -9.5q-94 0 -162.5 10.5t-144 46t-124 99t-80 177t-31.5 271.5zM307 565q0 -250 88 -341t267 -91q139 0 230 79t91 241v77q0 160 -78 212.5t-250 52.5q-184 0 -348 -39v-191z" />
<glyph unicode="7" horiz-adv-x="1179" d="M106 1212v310h986v-201l-664 -1321h-211l698 1354h-645l-18 -142h-146z" />
<glyph unicode="8" horiz-adv-x="1339" d="M127 438v17q0 233 166 336q-160 96 -160 319v23q0 125 45 211t127 127.5t167 58t194 16.5h6q109 0 193.5 -16.5t166.5 -58t127 -128t45 -210.5v-23q0 -223 -160 -319q166 -102 166 -336v-17q0 -129 -33.5 -220t-79.5 -138t-126 -72.5t-141.5 -31t-157.5 -5.5h-6 q-96 0 -158 5.5t-141.5 31t-125.5 72.5t-80 138t-34 220zM315 438q0 -100 25 -163.5t76 -93t106.5 -39t143.5 -9.5h6q88 0 143 9.5t106.5 39t76 93t24.5 163.5v17q0 135 -48 195.5t-167 60.5h-277q-119 0 -167 -60.5t-48 -195.5v-17zM319 1110q0 -119 47.5 -179.5 t163.5 -60.5h277q117 0 164 60.5t47 179.5v23q0 152 -87 201.5t-259 49.5h-6q-172 0 -259.5 -50t-87.5 -201v-23z" />
<glyph unicode="9" horiz-adv-x="1292" d="M119 981v86q0 119 37 209t91 140t126.5 82t133 41t124.5 9q94 0 162.5 -10t144.5 -46t123 -99.5t78.5 -177t31.5 -271.5v-395q0 -293 -128 -434.5t-441 -141.5q-205 0 -416 45v291h144l22 -166q143 -8 246 -8q129 0 209 27.5t117 89t48 126t11 171.5v72 q-162 -47 -356 -48q-109 0 -189 14.5t-157.5 55.5t-119.5 126t-42 212zM307 989q0 -160 78 -212t250 -52q184 0 348 39v190q0 250 -87 341.5t-265 91.5q-141 0 -232.5 -79t-91.5 -241v-78z" />
<glyph unicode=":" horiz-adv-x="528" d="M170 0v283h186v-283h-186zM170 844v282h186v-282h-186z" />
<glyph unicode=";" horiz-adv-x="548" d="M-2 -182l190 465h213l-241 -465h-162zM190 844v282h187v-282h-187z" />
<glyph unicode="&#x3c;" d="M295 801l594 514h252l-596 -514l596 -516h-252z" />
<glyph unicode="=" d="M260 500v151h916v-151h-916zM260 950v154h916v-154h-916z" />
<glyph unicode="&#x3e;" d="M295 285l594 516l-594 514h250l596 -514l-596 -516h-250z" />
<glyph unicode="?" horiz-adv-x="1017" d="M113 1290v275q178 47 338 47q211 0 319.5 -79t108.5 -255v-16q0 -100 -46.5 -189.5t-166.5 -210.5q-131 -133 -163 -199.5t-32 -181.5v-86h-180v86q0 143 37 235.5t166 217.5q117 113 155.5 180.5t38.5 147.5v16q0 98 -61.5 135t-192.5 37q-55 0 -153 -4l-25 -156h-143z M291 0v283h184v-283h-184z" />
<glyph unicode="@" horiz-adv-x="1708" d="M111 336q0 154 24 297q61 375 253 542.5t538 167.5q334 0 501.5 -152.5t167.5 -436.5q0 -145 -36.5 -258t-118.5 -202t-226.5 -136t-345.5 -47q-213 0 -310 74.5t-97 232.5q0 66 8 155q18 240 116.5 332t274.5 92q170 0 334 -41l-68 -673q324 74 324 473 q0 238 -129 351.5t-395 113.5q-285 0 -439.5 -138.5t-210.5 -464.5q-25 -143 -24 -282q0 -207 115.5 -323.5t400.5 -116.5q217 0 365 18v-102q-195 -31 -363 -31q-659 0 -659 555zM631 418q0 -94 52 -130t181 -36q53 0 86 2l56 584q-51 8 -144 8q-102 0 -156.5 -53.5 t-66.5 -223.5q-8 -112 -8 -151z" />
<glyph unicode="A" horiz-adv-x="1513" d="M72 0v150l112 10l391 1200l-118 10v152h432l446 -1362l107 -10v-150h-414v150l107 8l-107 340h-545l-108 -340l106 -8v-150h-409zM539 670h432l-144 444q-37 113 -61 250h-21q-33 -164 -61 -250z" />
<glyph unicode="B" horiz-adv-x="1347" d="M102 0v152l111 14v1188l-111 14v154h512q121 0 207 -8.5t167 -33t130 -67.5t79 -113.5t30 -169.5v-18q0 -104 -52.5 -194.5t-154.5 -133.5q109 -41 162 -130t53 -203v-23q0 -106 -33 -184t-85 -125t-137 -74t-172 -36t-204 -9h-502zM401 166h203q233 0 336.5 51 t103.5 211v23q0 123 -75.5 190.5t-261.5 67.5h-306v-543zM401 870h306q186 0 257.5 61.5t71.5 180.5v18q0 61 -19.5 103.5t-50 66t-90 36t-113.5 15.5t-149 3h-213v-484z" />
<glyph unicode="C" horiz-adv-x="1196" d="M113 635v252q0 195 45 328t133 203.5t192.5 99t243.5 28.5q178 0 352 -35v-299h-147l-21 160q-178 6 -184 6q-223 0 -324.5 -109.5t-101.5 -381.5v-252q0 -272 101.5 -383t324.5 -111q66 0 184 4l21 164h147v-303q-209 -35 -352 -35q-111 0 -199 17.5t-167.5 62.5 t-133 119t-84 191.5t-30.5 273.5z" />
<glyph unicode="D" horiz-adv-x="1425" d="M102 0v150l111 16v1188l-111 16v152h537q342 0 505 -167t163 -468v-248q0 -639 -668 -639h-537zM401 166h222q252 0 372.5 109.5t120.5 363.5v248q0 252 -119.5 359.5t-373.5 107.5h-222v-1188z" />
<glyph unicode="E" horiz-adv-x="1226" d="M102 0v150l111 10v1200l-111 10v152h1012v-310h-147l-21 142h-545v-480h670v-169h-670v-539h545l21 145h147v-311h-1012z" />
<glyph unicode="F" horiz-adv-x="1206" d="M102 0v150l111 10v1200l-111 10v152h1012v-310h-147l-21 142h-545v-480h670v-169h-670v-545l111 -10v-150h-410z" />
<glyph unicode="G" horiz-adv-x="1298" d="M113 627v268q0 651 606 651q231 0 446 -39v-295h-147l-23 156q-164 10 -250 10q-106 0 -178.5 -17.5t-137 -67.5t-95.5 -148t-31 -250v-268q0 -276 106.5 -380t331.5 -104q143 0 236 7v477l-217 16v148h405v-777q-215 -43 -448 -43q-604 1 -604 656z" />
<glyph unicode="H" horiz-adv-x="1564" d="M102 0v150l111 10v1200l-111 10v152h410v-150l-111 -10v-473h762v473l-110 10v150h409v-152l-110 -10v-1200l110 -10v-150h-409v150l110 10v559h-762v-559l111 -10v-150h-410z" />
<glyph unicode="I" horiz-adv-x="624" d="M106 0v150l111 10v1200l-111 10v152h410v-152l-110 -10v-1200l110 -10v-150h-410z" />
<glyph unicode="J" horiz-adv-x="614" d="M-70 -291h140q90 0 114.5 35t24.5 133v1483l-111 10v152h408v-152l-111 -10v-1483q0 -172 -69.5 -249t-243.5 -77q-102 0 -152 17v141z" />
<glyph unicode="K" horiz-adv-x="1366" d="M102 0v150l111 10v1200l-111 10v152h410v-150l-111 -10v-555l654 715h219v-152l-121 -8l-539 -590l545 -614l115 -8v-150h-236l-637 733v-573l111 -10v-150h-410z" />
<glyph unicode="L" horiz-adv-x="1183" d="M102 0v150l111 10v1200l-111 10v152h410v-152l-111 -10v-1194h529l20 147h148v-313h-996z" />
<glyph unicode="M" horiz-adv-x="1742" d="M102 0v150l111 10v1200l-111 10v152h359l315 -686q8 -16 90 -205h4q10 25 95 209l319 682h356v-152l-110 -10v-1200l110 -10v-150h-407v150l110 10v829q0 109 11 283h-4q-14 -35 -109 -234l-256 -546h-231l-250 546l-109 234h-4q8 -209 8 -283v-829l111 -10v-150h-408z " />
<glyph unicode="N" horiz-adv-x="1523" d="M102 0v150l111 10v1200l-111 10v152h381l531 -1063q59 -117 123 -260h4q-10 152 -11 333v830l-110 10v150h401v-152l-110 -10v-1360h-269l-536 1092q-102 209 -123 258h-4q10 -168 10 -318v-872l111 -10v-150h-398z" />
<glyph unicode="O" horiz-adv-x="1400" d="M113 651v217q0 326 151.5 502t436 176t436 -176t151.5 -502v-217q0 -326 -152.5 -503t-435 -177t-435 177t-152.5 503zM303 651q0 -512 397.5 -512t397.5 512v217q0 510 -397.5 510t-397.5 -510v-217z" />
<glyph unicode="P" horiz-adv-x="1308" d="M102 0v150l111 10v1200l-111 10v152h480q113 0 199.5 -10.5t169.5 -39t136.5 -77.5t86 -130t32.5 -192v-26q0 -113 -32.5 -195t-86 -131t-136.5 -79t-169 -40t-200 -10h-181v-432l111 -10v-150h-410zM401 758h181q233 0 333.5 57t100.5 232v26q-2 170 -101.5 225.5 t-332.5 55.5h-181v-596z" />
<glyph unicode="Q" horiz-adv-x="1400" d="M113 651v217q0 326 151.5 502t436 176t436 -176t151.5 -502v-217q0 -297 -128 -471t-367 -203v-112q0 -63 24.5 -82t112.5 -19h174v-129q-96 -20 -227 -20q-135 0 -202 51t-67 199v112q-240 29 -367.5 202t-127.5 472zM303 651q0 -512 397.5 -512t397.5 512v217 q0 510 -397.5 510t-397.5 -510v-217z" />
<glyph unicode="R" horiz-adv-x="1392" d="M102 0v150l111 10v1200l-111 10v152h469q115 0 203 -10.5t172 -40t139.5 -79t88 -130t32.5 -191.5v-14q0 -326 -284 -424l284 -475l115 -8v-150h-242l-358 594q-41 -2 -143 -2h-177v-432l111 -10v-150h-410zM401 758h177q233 0 335.5 63.5t102.5 235.5v14 q0 170 -102.5 226.5t-342.5 56.5h-170v-596z" />
<glyph unicode="S" horiz-adv-x="1198" d="M113 1178q0 369 497 368q262 0 420 -41v-293h-143l-27 162q-104 8 -244 8q-160 0 -236.5 -46t-76.5 -158q0 -90 43 -145.5t162 -108.5l262 -115q164 -74 239.5 -171t75.5 -253q0 -201 -127 -307.5t-376 -106.5q-268 0 -435 43v303h144l22 -176q141 -6 269 -6 q158 0 234.5 59.5t76.5 190.5q0 94 -44 152.5t-163 111.5l-260 117q-160 72 -236.5 166t-76.5 246z" />
<glyph unicode="T" horiz-adv-x="1298" d="M86 1212v310h1126v-310h-145l-20 142h-304v-1198l111 -11v-145h-410v145l111 11v1198h-305l-19 -142h-145z" />
<glyph unicode="U" horiz-adv-x="1529" d="M102 1372v150h410v-150l-111 -10v-709q0 -281 80 -396.5t285 -115.5t284.5 117t79.5 395v709l-110 10v150h407v-150l-110 -10v-729q0 -662 -551 -662q-553 0 -553 662v729z" />
<glyph unicode="V" horiz-adv-x="1531" d="M82 1370v152h410v-150l-107 -8l309 -958q2 -8 70 -263h4q45 193 68 263l309 958l-105 8v150h410v-152l-115 -10l-448 -1360h-252l-449 1360z" />
<glyph unicode="W" horiz-adv-x="1972" d="M82 1370v152h405v-150l-106 -10l151 -909l50 -303h10l65 301l183 845h295l184 -852l63 -294h11q18 133 47 303l151 909l-108 10v150h407v-152l-106 -10l-246 -1360h-301l-207 942l-43 195h-6l-43 -195l-205 -942h-305l-246 1360z" />
<glyph unicode="X" horiz-adv-x="1478" d="M102 0v150l115 10l404 614l-394 586l-114 10v152h424v-140l-97 -8l312 -467l297 465l-107 10v140h424v-152l-117 -10l-397 -594l408 -606l116 -10v-150h-428v139l94 8l-317 480l-307 -482l108 -6v-139h-424z" />
<glyph unicode="Y" horiz-adv-x="1355" d="M72 1370v152h405v-140l-112 -10l194 -352q82 -150 117 -242h12q18 47 123 242l193 352l-121 10v140h401v-152l-94 -8l-420 -760v-436l111 -10v-156h-408v156l111 10v436l-420 760z" />
<glyph unicode="Z" horiz-adv-x="1277" d="M113 0v209l821 1145h-627l-18 -142h-146v310h994v-207l-820 -1149h682l23 153h143v-319h-1052z" />
<glyph unicode="[" horiz-adv-x="827" d="M233 -426v1948h476v-158h-293v-1636h293v-154h-476z" />
<glyph unicode="\" horiz-adv-x="905" d="M51 1522h176l625 -1522h-178z" />
<glyph unicode="]" horiz-adv-x="827" d="M117 -272h293v1638h-293v156h475v-1948h-475v154z" />
<glyph unicode="^" d="M223 850l338 678h311l338 -678h-200l-293 586l-291 -586h-203z" />
<glyph unicode="_" horiz-adv-x="1175" d="M-12 -96h1198v-121h-1198v121z" />
<glyph unicode="`" horiz-adv-x="935" d="M111 1577h223l268 -315h-184z" />
<glyph unicode="a" horiz-adv-x="1177" d="M106 291v41q0 207 127 277.5t392 70.5h168v82q0 147 -48.5 192t-216.5 45q-86 0 -188 -6l-18 -119h-142v232q37 14 142.5 31.5t220.5 17.5q137 0 225 -23.5t133 -78t60.5 -121t15.5 -170.5v-602l110 -10v-150h-286v76q-150 -104 -359 -105q-336 1 -336 320zM291 276 q0 -90 49 -125.5t139 -35.5q88 0 177 29.5t137 60.5v336h-168q-188 0 -261 -40t-73 -169v-56z" />
<glyph unicode="b" horiz-adv-x="1177" d="M41 1436v149h295v-502q137 76 303 76q217 0 321.5 -117.5t104.5 -361.5v-193q0 -268 -123 -392t-377 -124q-150 0 -413 29v1425zM336 145q127 -10 233 -10q164 0 238 79t74 275v193q0 170 -60.5 242.5t-204.5 72.5q-176 0 -280 -59v-793z" />
<glyph unicode="c" horiz-adv-x="1001" d="M117 479v170q0 506 450 506q219 0 322 -39v-242h-144l-18 117q-61 6 -133 6q-147 0 -220 -74.5t-73 -273.5v-170q0 -199 72.5 -274.5t220.5 -75.5q98 0 295 21v-140q-123 -39 -322 -39q-227 0 -338.5 131t-111.5 377z" />
<glyph unicode="d" horiz-adv-x="1230" d="M117 453v194q0 283 122.5 395.5t342.5 112.5q125 0 264 -29v297l-125 11v151h309v-1425l111 -10v-150h-289v57q-145 -86 -315 -86q-420 1 -420 482zM301 453q0 -168 64.5 -246t205.5 -78q131 0 275 70v774q-150 27 -252 26q-152 0 -222.5 -70.5t-70.5 -281.5v-194z" />
<glyph unicode="e" horiz-adv-x="1165" d="M111 514v86q0 268 119.5 411.5t357.5 143.5q483 0 483 -577v-82h-776v-23q0 -84 10 -137t43 -104.5t103.5 -76t183.5 -24.5q205 0 393 33v-148q-172 -45 -401 -45q-289 0 -402.5 129t-113.5 414zM297 647h584v21q0 49 -5.5 88t-22.5 86t-47 78.5t-85 53t-131 21.5 q-293 0 -293 -327v-21z" />
<glyph unicode="f" horiz-adv-x="866" d="M72 989v137h213v136q0 78 9 130t35.5 107t88 84t157.5 29q115 0 218 -29v-125q-14 0 -52.5 3t-74 4t-66.5 1q-88 0 -109.5 -42t-21.5 -162v-136h319v-153h-319v-813l111 -10v-150h-406v150l111 10v813z" />
<glyph unicode="g" horiz-adv-x="1185" d="M104 -94q0 143 105 244q-92 61 -92 169q0 115 94 179q-84 92 -84 268q0 88 20.5 153.5t69.5 122t144.5 85t232.5 28.5h500v-131l-119 -16q76 -100 76 -242q0 -389 -463 -389q-162 0 -264 43q-47 -37 -48 -86q0 -43 24 -59.5t81 -16.5h207q98 0 165.5 -6t135 -27.5 t108.5 -59.5t65.5 -102.5t24.5 -156.5q0 -362 -497 -363q-262 0 -374 91.5t-112 271.5zM287 -92q0 -115 58 -165t245 -50q180 0 247.5 51t67.5 164q0 123 -63.5 162t-253.5 39h-230q-71 -64 -71 -201zM307 766q0 -121 57.5 -179.5t223.5 -58.5q168 0 225 58.5t57 179.5 q0 123 -57 180.5t-225 57.5q-170 0 -225.5 -58.5t-55.5 -179.5z" />
<glyph unicode="h" horiz-adv-x="1310" d="M90 0v150l111 10v1263l-111 11v151h293v-522q178 92 367 92q184 0 272 -107.5t88 -328.5v-559l111 -10v-150h-295v713q0 164 -47.5 223t-165.5 59q-166 0 -330 -80v-755l111 -10v-150h-404z" />
<glyph unicode="i" horiz-adv-x="583" d="M90 0v152l111 8v805l-111 10v151h295v-966l109 -8v-152h-404zM201 1335v250h186v-250h-186z" />
<glyph unicode="j" horiz-adv-x="557" d="M-29 -309q10 0 52.5 -1t68.5 -1q74 0 95.5 35.5t21.5 140.5v1100l-111 10v151h295v-1261q0 -180 -62.5 -250t-221.5 -70q-92 0 -138 11v135zM209 1335v250h186v-250h-186z" />
<glyph unicode="k" horiz-adv-x="1163" d="M90 0v150l111 10v1263l-111 11v151h293v-967l453 508h237v-151l-143 -10l-336 -373l354 -432l125 -10v-150h-235l-455 559v-559h-293z" />
<glyph unicode="l" horiz-adv-x="583" d="M90 0v150l111 10v1263l-111 11v151h293v-1425l111 -10v-150h-404z" />
<glyph unicode="m" horiz-adv-x="1843" d="M90 0v150l111 10v805l-111 10v151h293v-88q160 117 336 117q178 0 248 -121q184 121 348 121q94 0 159.5 -27.5t97.5 -63.5t49 -100.5t19 -104.5t2 -111v-588l111 -10v-150h-295v748q0 61 -1 88.5t-9 65.5t-25.5 54.5t-50.5 28.5t-82 12q-123 0 -284 -94q8 -53 8 -155 v-748h-185v748q0 61 -1 88.5t-8 65.5t-23.5 54.5t-46 28.5t-74.5 12q-123 0 -293 -98v-739l111 -10v-150h-404z" />
<glyph unicode="n" horiz-adv-x="1310" d="M90 0v150l111 10v805l-111 10v151h293v-88q227 117 375 117q211 0 281.5 -104.5t70.5 -331.5v-559l111 -10v-150h-295v719q0 160 -38 219t-151 59q-125 0 -354 -100v-737l111 -10v-150h-404z" />
<glyph unicode="o" horiz-adv-x="1191" d="M115 481v164q0 248 121.5 379t357.5 131q238 0 359.5 -131t121.5 -379v-164q0 -248 -122 -379t-359 -131q-236 0 -357.5 131t-121.5 379zM299 481q0 -182 70.5 -265t224.5 -83q156 0 226.5 83t70.5 265v164q0 182 -70.5 265t-226.5 83q-154 0 -224.5 -83t-70.5 -265v-164 z" />
<glyph unicode="p" horiz-adv-x="1226" d="M90 -279l111 11v1233l-111 10v151h287v-75q152 104 328 104q201 0 304 -124t103 -400v-111q0 -158 -36 -268.5t-102.5 -169.5t-148.5 -85t-190 -26q-129 0 -252 33v-272l111 -11v-151h-404v151zM383 158q154 -31 252 -31q150 0 222.5 81t72.5 312v111q0 201 -61.5 281.5 t-192.5 80.5q-123 0 -293 -84v-751z" />
<glyph unicode="q" horiz-adv-x="1230" d="M115 496v112q0 311 120.5 429t389.5 118q174 0 403 -31v-1394l111 -11v-149h-404v151l111 11v319q-170 -80 -342 -80q-203 0 -296 122t-93 403zM299 496q0 -205 50 -284t186 -79q143 0 309 68v782q-133 10 -223 10q-88 0 -142.5 -12t-98.5 -52t-62.5 -118t-18.5 -203 v-112z" />
<glyph unicode="r" horiz-adv-x="833" d="M90 0v150l111 10v805l-111 10v151h291v-90q152 119 401 119v-164q-111 0 -222 -27.5t-177 -68.5v-735l111 -10v-150h-404z" />
<glyph unicode="s" horiz-adv-x="1007" d="M102 874q0 143 98.5 212t309.5 69q102 0 210.5 -14.5t145.5 -26.5v-240h-143l-21 115q-119 8 -184 8q-129 0 -180 -24.5t-51 -98.5q0 -66 39 -104.5t157 -89.5l82 -35q201 -90 270.5 -161.5t69.5 -198.5q0 -313 -420 -314q-104 0 -216.5 16.5t-151.5 28.5v263h143 l21 -142q131 -8 198 -8q137 0 189.5 37t52.5 115q0 76 -41 113.5t-186 99.5l-82 34q-166 70 -238 148.5t-72 197.5z" />
<glyph unicode="t" horiz-adv-x="886" d="M72 989v137h227v293h184v-293h301v-153h-301v-707q0 -96 18.5 -121.5t96.5 -25.5q98 0 186 10v-127q-92 -31 -206 -31q-154 0 -216.5 63.5t-62.5 223.5v715z" />
<glyph unicode="u" horiz-adv-x="1310" d="M90 975v151h293v-718q0 -160 38 -219.5t152 -59.5q123 0 353 100v736l-111 10v151h295v-966l111 -10v-150h-295v88q-229 -117 -391 -117q-193 0 -263.5 114t-70.5 323v557z" />
<glyph unicode="v" horiz-adv-x="1267" d="M82 975v151h360v-137l-67 -6l170 -549q43 -139 88 -309h4q51 195 86 309l168 549l-66 6v137h361v-151l-105 -10l-321 -965h-254l-322 965z" />
<glyph unicode="w" horiz-adv-x="1871" d="M82 975v151h369v-137l-86 -8l118 -551q39 -182 45 -291h11l38 144l39 145l177 606h286l176 -606q14 -47 40 -145l38 -144h10q6 109 46 291l118 551l-86 8v137h369v-151l-100 -8l-220 -967h-266l-203 676q-43 141 -61 227h-8q-18 -86 -62 -227l-202 -676h-267l-219 967z " />
<glyph unicode="x" horiz-adv-x="1214" d="M82 0v150l125 10l282 413l-266 392l-127 10v151h234l297 -434l280 434h226v-151l-127 -10l-283 -414l268 -391l125 -10v-150h-233l-289 420l-281 -420h-231z" />
<glyph unicode="y" horiz-adv-x="1312" d="M82 975v151h383v-137l-64 -6l177 -489q41 -119 90 -299h4q35 150 86 301l160 487l-68 6v137h381v-151l-127 -10l-369 -1063q-33 -92 -59.5 -148.5t-69.5 -109t-104.5 -76t-145.5 -23.5q-123 0 -219 21v141q117 -8 213 -8q80 0 118 45t85 176l29 80l-373 965z" />
<glyph unicode="z" horiz-adv-x="1030" d="M102 0v207l627 766h-438l-19 -99h-143v252h797v-190l-637 -784h475l20 127h144v-279h-826z" />
<glyph unicode="{" horiz-adv-x="843" d="M111 481v129q80 55 106.5 102.5t26.5 145.5v379q0 150 69.5 217.5t276.5 67.5h129v-156h-129q-109 0 -136.5 -23.5t-27.5 -105.5v-379q0 -117 -33 -188.5t-110 -124.5q76 -55 109.5 -127t33.5 -187v-376q0 -84 27.5 -107.5t136.5 -23.5h131v-154h-131q-205 0 -275.5 68.5 t-70.5 216.5v376q0 100 -26.5 147.5t-106.5 102.5z" />
<glyph unicode="|" horiz-adv-x="647" d="M231 -430v1952h183v-1952h-183z" />
<glyph unicode="}" horiz-adv-x="843" d="M123 -276h131q109 0 136.5 23.5t27.5 107.5v376q0 115 33.5 186.5t109.5 127.5q-78 53 -110.5 124.5t-32.5 188.5v379q0 82 -28 105.5t-136 23.5h-129v156h129q207 0 276.5 -68t69.5 -217v-379q0 -98 26.5 -145t106.5 -103v-129q-80 -55 -106.5 -102t-26.5 -148v-376 q0 -147 -70.5 -216t-275.5 -69h-131v154z" />
<glyph unicode="~" d="M240 717v92q0 285 239 285q59 0 103.5 -21.5t107.5 -73.5l123 -98q76 -59 148 -59q55 0 71.5 33.5t16.5 105.5v96h147v-96q0 -135 -50 -209t-177 -74q-137 0 -236 82l-129 105q-31 27 -46 38t-35.5 19t-45.5 8q-53 0 -71.5 -32.5t-18.5 -108.5v-92h-147z" />
<glyph unicode="&#xa1;" horiz-adv-x="544" d="M172 -461l21 1190h159l19 -1190h-199zM178 848v276h187v-276h-187z" />
<glyph unicode="&#xa2;" horiz-adv-x="1062" d="M123 489v150q0 457 358 508v221h166v-215q135 -6 248 -37v-242h-143l-21 119q-78 4 -133 4q-147 0 -219 -76.5t-72 -281.5v-150q0 -205 72 -281.5t219 -76.5q90 0 297 19v-138q-86 -29 -248 -37v-221h-166v228q-358 50 -358 507z" />
<glyph unicode="&#xa3;" horiz-adv-x="1277" d="M133 715v155h160v156q0 274 95 397t366 123q225 0 389 -41v-293h-146l-22 162q-74 8 -209 8q-184 0 -234.5 -71.5t-50.5 -284.5v-156h510v-155h-510v-314q0 -135 -73 -241h735v-160h-942v143q92 98 92 258v314h-160z" />
<glyph unicode="&#xa4;" horiz-adv-x="1335" d="M156 393l153 154q-68 106 -67 229q0 129 67 230l-153 153l127 127l155 -151q100 66 229.5 65.5t229.5 -65.5l154 149l129 -125l-154 -153q68 -113 68 -230q0 -125 -68 -229l154 -154l-129 -129l-156 154q-106 -68 -227 -68q-129 0 -230 68l-155 -152zM395 776.5 q0 -114.5 81 -196.5t191.5 -82t191.5 82t81 196.5t-81 196.5t-191.5 82t-191.5 -82t-81 -196.5z" />
<glyph unicode="&#xa5;" horiz-adv-x="1329" d="M84 1370v152h219l252 -502q80 -158 109 -229h4q45 111 106 229l254 502h217v-152l-94 -8l-193 -375h263v-145h-342l-111 -203h453v-145h-463v-328l110 -10v-156h-409v156l110 10v328h-465v145h453l-108 203h-343v145h263l-191 375z" />
<glyph unicode="&#xa6;" horiz-adv-x="647" d="M231 387h183v-811h-183v811zM231 713v809h183v-809h-183z" />
<glyph unicode="&#xa7;" horiz-adv-x="1327" d="M178 772q0 117 51 209q-51 80 -51 205q0 180 119 270t379 90q229 0 420 -41v-293h-144l-22 156q-104 8 -246 8q-178 0 -243.5 -45t-65.5 -145q0 -88 41 -144.5t168 -117.5l247 -121q178 -86 248 -182.5t70 -229.5q0 -113 -57 -213q57 -96 57 -219q0 -182 -122 -293.5 t-378 -111.5q-270 0 -434 40v306h145l19 -166q170 -10 260 -10q174 0 241.5 57t67.5 178q0 94 -41 151.5t-194 135.5l-258 133q-147 76 -212 169t-65 224zM354 797q0 -119 31 -161t162 -108l254 -127q27 -12 157 -98v51q0 115 -34.5 167t-171.5 118l-248 121q-66 33 -150 98 v-61z" />
<glyph unicode="&#xa8;" horiz-adv-x="935" d="M152 1317h167v242h-167v-242zM621 1317v242h165v-242h-165z" />
<glyph unicode="&#xa9;" horiz-adv-x="1730" d="M145 772q0 344 199 544t516.5 200t515 -200t197.5 -544q0 -346 -197.5 -545.5t-515 -199.5t-516.5 199.5t-199 545.5zM297 772q0 -283 155.5 -446.5t407.5 -163.5t408.5 163.5t156.5 446.5q0 279 -156.5 442.5t-408.5 163.5t-407.5 -163.5t-155.5 -442.5zM502 709v127 q0 184 95 278t275 94q158 0 230 -20v-205h-115l-14 86q-31 2 -92 2q-123 0 -168 -52t-45 -183v-127q0 -131 45 -184.5t168 -53.5q59 0 92 4l14 84h115v-205q-78 -20 -230 -20q-180 0 -275 96.5t-95 278.5z" />
<glyph unicode="&#xaa;" horiz-adv-x="886" d="M117 1071v21q0 55 18.5 95t48 61.5t77.5 34.5t94 16.5t112 3.5h102v38q0 82 -30.5 109t-135.5 27q-55 0 -116 -7l-11 -63h-108v152q115 33 258 32q174 0 234.5 -57t60.5 -193v-329l63 -4v-119h-206v49q-102 -66 -240 -66q-100 0 -160.5 49.5t-60.5 149.5zM264 1067 q0 -51 29 -65.5t88 -14.5q111 0 190 51v166h-104q-119 0 -161 -20.5t-42 -89.5v-27z" />
<glyph unicode="&#xab;" horiz-adv-x="1384" d="M113 592l333 -426h218l-324 426l324 422h-218zM715 592l334 422h217l-324 -422l324 -426h-217z" />
<glyph unicode="&#xac;" d="M260 950v154h916v-604h-154v450h-762z" />
<glyph unicode="&#xad;" horiz-adv-x="884" d="M152 522v154h505v-154h-505z" />
<glyph unicode="&#xae;" horiz-adv-x="1396" d="M145 975q0 264 148.5 421.5t400.5 157.5t400.5 -157.5t148.5 -421.5t-148.5 -422t-400.5 -158t-400.5 158t-148.5 422zM268 975q0 -221 113 -344t313 -123q199 0 311.5 123t112.5 344q0 217 -112.5 341t-311.5 124q-201 0 -313.5 -124t-112.5 -341zM434 666v86l47 6v467 l-47 6v92q74 2 225 2q139 0 214 -41t75 -158v-6q0 -147 -131 -188l119 -172l55 -6v-88h-147l-164 243h-70v-151l47 -6v-86h-223zM610 1010h52q82 0 118.5 23.5t36.5 86.5v6q0 61 -34.5 78t-123.5 17h-49v-211z" />
<glyph unicode="&#xaf;" horiz-adv-x="935" d="M117 1341v144h702v-144h-702z" />
<glyph unicode="&#xb0;" horiz-adv-x="929" d="M111 1189.5q0 147.5 103 251t250.5 103.5t252 -103.5t104.5 -251t-104.5 -249.5t-252 -102t-250.5 102t-103 249.5zM262 1190q0 -88 58.5 -146.5t142.5 -58.5q86 0 144.5 58.5t58.5 146.5q0 90 -58.5 147.5t-144.5 57.5q-84 0 -142.5 -57.5t-58.5 -147.5z" />
<glyph unicode="&#xb1;" d="M205 786v150h440v440h150v-440h436v-150h-436v-440h-150v440h-440zM211 0v152h1012v-152h-1012z" />
<glyph unicode="&#xb2;" horiz-adv-x="925" d="M127 616v115q0 154 63.5 233.5t235.5 163.5q125 59 158.5 94t33.5 95q0 57 -45 80.5t-157 23.5q-76 0 -152 -6l-10 -92h-113v193q131 33 293 32q180 0 266 -54t86 -173q0 -94 -57 -161.5t-203 -139.5q-150 -74 -191.5 -119t-41.5 -141v-12h356l13 88h112v-220h-647z" />
<glyph unicode="&#xb3;" horiz-adv-x="923" d="M131 635v194h113l12 -100q141 -6 156 -6q109 0 155.5 31.5t46.5 119.5v23q0 63 -30.5 96t-126.5 33h-281v123h281q94 0 125.5 35t31.5 98v14q0 70 -43 97.5t-161 27.5q-82 0 -152 -6l-12 -92h-111v193q115 33 289 32q182 0 269 -56t87 -189v-15q0 -143 -116 -201 q117 -55 116 -194v-23q0 -145 -88 -209.5t-268 -64.5q-170 0 -293 39z" />
<glyph unicode="&#xb4;" horiz-adv-x="935" d="M309 1262l269 315h223l-307 -315h-185z" />
<glyph unicode="&#xb5;" horiz-adv-x="1320" d="M94 -279l111 11v1233l-111 10v151h295v-718q0 -160 38 -219.5t153 -59.5q125 0 350 100v736l-111 10v151h295v-966l111 -10v-150h-295v88q-227 -117 -391 -117q-88 0 -150 25v-264l111 -11v-151h-406v151z" />
<glyph unicode="&#xb6;" horiz-adv-x="1507" d="M139 1014v20q0 150 47 250t141.5 150.5t205 69t270.5 18.5h536v-1928h-172v1770h-116v-1770h-402v152l230 12v768h-95q-150 0 -259 21.5t-200.5 74t-138.5 151t-47 241.5z" />
<glyph unicode="&#xb7;" horiz-adv-x="516" d="M164 614v283h186v-283h-186z" />
<glyph unicode="&#xb8;" horiz-adv-x="935" d="M150 -430l237 291h229l-278 -291h-188z" />
<glyph unicode="&#xb9;" horiz-adv-x="880" d="M154 1309v137l262 88h121v-793l213 -6v-121h-594v121l213 6v635z" />
<glyph unicode="&#xba;" horiz-adv-x="897" d="M117 1198v68q0 160 85 242.5t246.5 82.5t246.5 -83t85 -242v-68q0 -160 -85 -244t-246.5 -84t-246.5 84t-85 244zM268 1198q0 -106 42 -153.5t138.5 -47.5t138.5 47.5t42 153.5v68q0 106 -42 153t-138 47q-94 0 -137.5 -47t-43.5 -153v-68z" />
<glyph unicode="&#xbb;" horiz-adv-x="1384" d="M117 166h217l336 426l-336 422h-217l325 -422zM721 166l323 426l-323 422h217l334 -422l-334 -426h-217z" />
<glyph unicode="&#xbc;" horiz-adv-x="1931" d="M139 1309v137l262 88h121v-793l213 -6v-121h-594v121l213 6v635zM459 0l968 1522h185l-969 -1522h-184zM1042 225v135l467 553h162v-563h144v-125h-144v-114l68 -7v-104h-303v104l67 7v114h-461zM1196 350h311v371z" />
<glyph unicode="&#xbd;" horiz-adv-x="2117" d="M139 1309v137l262 88h121v-793l213 -6v-121h-594v121l213 6v635zM459 0l968 1522h185l-969 -1522h-184zM1319 0v115q0 154 63.5 232.5t235.5 162.5q125 61 158.5 96t33.5 92q0 59 -45 83t-157 24q-76 0 -152 -6l-10 -94h-113v194q123 31 293 31q180 0 266 -54.5 t86 -173.5q0 -94 -57 -160.5t-203 -138.5q-152 -76 -192.5 -119.5t-40.5 -140.5v-12h356l12 88h113v-219h-647z" />
<glyph unicode="&#xbe;" horiz-adv-x="2025" d="M123 635v194h113l12 -100q141 -6 155 -6q109 0 156 31.5t47 119.5v23q0 63 -30.5 96t-126.5 33h-281v123h281q94 0 125.5 35t31.5 98v14q0 70 -43 97.5t-162 27.5q-82 0 -151 -6l-12 -92h-111v193q115 33 289 32q182 0 269 -56t87 -189v-15q0 -143 -117 -201 q117 -55 117 -194v-23q0 -145 -88 -209.5t-268 -64.5q-170 0 -293 39zM475 0l971 1522h184l-971 -1522h-184zM1122 225v135l467 553h162v-563h143v-125h-143v-114l68 -7v-104h-303v104l67 7v114h-461zM1276 350h311v371z" />
<glyph unicode="&#xbf;" horiz-adv-x="1038" d="M168 -135q0 102 47 194.5t166 212.5q129 131 161.5 195.5t32.5 177.5v84h181v-84q0 -139 -37 -225t-166 -215q-113 -113 -153 -185.5t-40 -154.5v-17q0 -100 60.5 -136t191.5 -36q53 0 156 5l23 155h143v-274q-178 -47 -338 -47q-211 0 -319.5 78.5t-108.5 254.5v17z M571 844v282h187v-282h-187z" />
<glyph unicode="&#xc0;" horiz-adv-x="1513" d="M72 0v150l112 10l391 1200l-118 10v152h432l446 -1362l107 -10v-150h-414v150l107 8l-107 340h-545l-108 -340l106 -8v-150h-409zM408 1954h223l268 -316h-184zM539 670h432l-144 444q-37 113 -61 250h-21q-33 -164 -61 -250z" />
<glyph unicode="&#xc1;" horiz-adv-x="1513" d="M72 0v150l112 10l391 1200l-118 10v152h432l446 -1362l107 -10v-150h-414v150l107 8l-107 340h-545l-108 -340l106 -8v-150h-409zM539 670h432l-144 444q-37 113 -61 250h-21q-33 -164 -61 -250zM561 1638l268 316h224l-308 -316h-184z" />
<glyph unicode="&#xc2;" horiz-adv-x="1513" d="M72 0v150l112 10l391 1200l-118 10v152h432l446 -1362l107 -10v-150h-414v150l107 8l-107 340h-545l-108 -340l106 -8v-150h-409zM358 1638l277 316h244l276 -316h-184l-215 215l-213 -215h-185zM539 670h432l-144 444q-37 113 -61 250h-21q-33 -164 -61 -250z" />
<glyph unicode="&#xc3;" horiz-adv-x="1513" d="M72 0v150l112 10l391 1200l-118 10v152h432l446 -1362l107 -10v-150h-414v150l107 8l-107 340h-545l-108 -340l106 -8v-150h-409zM360 1655v69q0 254 205 254q100 0 199 -77l86 -70q74 -59 121 -59q43 0 57 28.5t14 93.5v70h132v-70q0 -123 -45.5 -188.5t-153.5 -65.5 q-102 0 -209 84l-84 68q-66 57 -117 57q-41 0 -56 -30.5t-15 -94.5v-69h-134zM539 670h432l-144 444q-37 113 -61 250h-21q-33 -164 -61 -250z" />
<glyph unicode="&#xc4;" horiz-adv-x="1513" d="M72 0v150l112 10l391 1200l-118 10v152h432l446 -1362l107 -10v-150h-414v150l107 8l-107 340h-545l-108 -340l106 -8v-150h-409zM436 1661h168v242h-168v-242zM539 670h432l-144 444q-37 113 -61 250h-21q-33 -164 -61 -250zM905 1661v242h166v-242h-166z" />
<glyph unicode="&#xc5;" horiz-adv-x="1513" d="M72 0v150l112 10l391 1200l-118 10v152h432l446 -1362l107 -10v-150h-414v150l107 8l-107 340h-545l-108 -340l106 -8v-150h-409zM518 1785.5q0 112.5 66.5 168t175.5 55.5q106 0 170.5 -55.5t64.5 -168t-64.5 -167.5t-170.5 -55q-109 0 -175.5 55t-66.5 167.5zM539 670 h432l-144 444q-37 113 -61 250h-21q-33 -164 -61 -250zM645 1785.5q0 -112.5 115 -112.5q113 0 112.5 112.5t-112.5 112.5q-115 0 -115 -112.5z" />
<glyph unicode="&#xc6;" horiz-adv-x="2039" d="M72 0v150l112 12l391 1198l-110 10v152h1458v-310h-145l-21 142h-547v-480h672v-169h-672v-539h547l21 145h145v-311h-1010v150l111 10v338h-541l-108 -342l106 -6v-150h-409zM539 666h485v690h-270q-4 -16 -29 -100.5l-39 -129.5z" />
<glyph unicode="&#xc7;" horiz-adv-x="1196" d="M113 635v252q0 195 45 328t133 203.5t192.5 99t243.5 28.5q178 0 352 -35v-299h-147l-21 160q-178 6 -184 6q-223 0 -324.5 -109.5t-101.5 -381.5v-252q0 -272 101.5 -383t324.5 -111q66 0 184 4l21 164h147v-303q-209 -35 -352 -35q-111 0 -199 17.5t-167.5 62.5 t-133 119t-84 191.5t-30.5 273.5zM330 -430l237 291h230l-279 -291h-188z" />
<glyph unicode="&#xc8;" horiz-adv-x="1226" d="M102 0v150l111 10v1200l-111 10v152h1012v-310h-147l-21 142h-545v-480h670v-169h-670v-539h545l21 145h147v-311h-1012zM317 1954h224l268 -316h-184z" />
<glyph unicode="&#xc9;" horiz-adv-x="1226" d="M102 0v150l111 10v1200l-111 10v152h1012v-310h-147l-21 142h-545v-480h670v-169h-670v-539h545l21 145h147v-311h-1012zM512 1638l268 316h224l-308 -316h-184z" />
<glyph unicode="&#xca;" horiz-adv-x="1226" d="M102 0v150l111 10v1200l-111 10v152h1012v-310h-147l-21 142h-545v-480h670v-169h-670v-539h545l21 145h147v-311h-1012zM242 1638l276 316h244l276 -316h-184l-215 215l-213 -215h-184z" />
<glyph unicode="&#xcb;" horiz-adv-x="1226" d="M102 0v150l111 10v1200l-111 10v152h1012v-310h-147l-21 142h-545v-480h670v-169h-670v-539h545l21 145h147v-311h-1012zM342 1661h168v242h-168v-242zM811 1661v242h166v-242h-166z" />
<glyph unicode="&#xcc;" horiz-adv-x="624" d="M-20 1954h223l268 -316h-184zM106 0v150l111 10v1200l-111 10v152h410v-152l-110 -10v-1200l110 -10v-150h-410z" />
<glyph unicode="&#xcd;" horiz-adv-x="624" d="M106 0v150l111 10v1200l-111 10v152h410v-152l-110 -10v-1200l110 -10v-150h-410zM154 1638l268 316h223l-307 -316h-184z" />
<glyph unicode="&#xce;" horiz-adv-x="624" d="M-88 1638l276 316h244l277 -316h-185l-215 215l-213 -215h-184zM106 0v150l111 10v1200l-111 10v152h410v-152l-110 -10v-1200l110 -10v-150h-410z" />
<glyph unicode="&#xcf;" horiz-adv-x="624" d="M-6 1661h168v242h-168v-242zM106 0v150l111 10v1200l-111 10v152h410v-152l-110 -10v-1200l110 -10v-150h-410zM463 1661v242h166v-242h-166z" />
<glyph unicode="&#xd0;" horiz-adv-x="1419" d="M94 0v150l111 16v541h-109v165h109v482l-111 16v152h537q344 0 506.5 -167t162.5 -468v-248q0 -639 -669 -639h-537zM393 166h223q252 0 372 109.5t120 363.5v248q0 252 -120 359.5t-372 107.5h-223v-482h307v-165h-307v-541z" />
<glyph unicode="&#xd1;" horiz-adv-x="1523" d="M102 0v150l111 10v1200l-111 10v152h381l531 -1063q59 -117 123 -260h4q-10 152 -11 333v830l-110 10v150h401v-152l-110 -10v-1360h-269l-536 1092q-102 209 -123 258h-4q10 -168 10 -318v-872l111 -10v-150h-398zM348 1645v69q0 254 205 254q100 0 199 -78l86 -69 q74 -59 120 -60q43 0 57.5 29t14.5 94v70h131v-70q0 -123 -45 -188.5t-153 -65.5q-102 0 -209 84l-84 68q-66 57 -117 57q-41 0 -56.5 -30.5t-15.5 -94.5v-69h-133z" />
<glyph unicode="&#xd2;" horiz-adv-x="1400" d="M113 651v217q0 326 151.5 502t436 176t436 -176t151.5 -502v-217q0 -326 -152.5 -503t-435 -177t-435 177t-152.5 503zM303 651q0 -512 397.5 -512t397.5 512v217q0 510 -397.5 510t-397.5 -510v-217zM348 1954h223l269 -316h-185z" />
<glyph unicode="&#xd3;" horiz-adv-x="1400" d="M113 651v217q0 326 151.5 502t436 176t436 -176t151.5 -502v-217q0 -326 -152.5 -503t-435 -177t-435 177t-152.5 503zM303 651q0 -512 397.5 -512t397.5 512v217q0 510 -397.5 510t-397.5 -510v-217zM559 1638l268 316h224l-308 -316h-184z" />
<glyph unicode="&#xd4;" horiz-adv-x="1400" d="M113 651v217q0 326 151.5 502t436 176t436 -176t151.5 -502v-217q0 -326 -152.5 -503t-435 -177t-435 177t-152.5 503zM301 1638l277 316h243l277 -316h-185l-215 215l-213 -215h-184zM303 651q0 -512 397.5 -512t397.5 512v217q0 510 -397.5 510t-397.5 -510v-217z" />
<glyph unicode="&#xd5;" horiz-adv-x="1400" d="M113 651v217q0 326 151.5 502t436 176t436 -176t151.5 -502v-217q0 -326 -152.5 -503t-435 -177t-435 177t-152.5 503zM291 1645v69q0 254 205 254q100 0 198 -78l86 -69q74 -59 121 -60q43 0 57.5 29t14.5 94v70h131v-70q0 -123 -45 -188.5t-154 -65.5q-102 0 -209 84 l-84 68q-66 57 -116 57q-41 0 -56.5 -30.5t-15.5 -94.5v-69h-133zM303 651q0 -512 397.5 -512t397.5 512v217q0 510 -397.5 510t-397.5 -510v-217z" />
<glyph unicode="&#xd6;" horiz-adv-x="1400" d="M113 651v217q0 326 151.5 502t436 176t436 -176t151.5 -502v-217q0 -326 -152.5 -503t-435 -177t-435 177t-152.5 503zM303 651q0 -512 397.5 -512t397.5 512v217q0 510 -397.5 510t-397.5 -510v-217zM383 1661h168v242h-168v-242zM852 1661v242h166v-242h-166z" />
<glyph unicode="&#xd7;" d="M301 1110l105 104l313 -311l309 311l107 -106l-312 -311l310 -308l-107 -104l-307 307l-311 -311l-105 104l311 314z" />
<glyph unicode="&#xd8;" horiz-adv-x="1400" d="M59 0l156 217q-102 168 -102 434v217q0 326 151.5 502t435.5 176q229 0 379 -121l68 95h194l-155 -217q102 -168 102 -435v-217q0 -326 -152.5 -503t-435.5 -177q-236 0 -381 121l-65 -92h-195zM303 651q0 -156 37 -260l633 885q-100 102 -273 102q-397 0 -397 -510v-217 zM426 242q100 -102 274 -103q397 0 398 512v217q0 156 -37 260z" />
<glyph unicode="&#xd9;" horiz-adv-x="1529" d="M102 1372v150h410v-150l-111 -10v-709q0 -281 80 -396.5t285 -115.5t284.5 117t79.5 395v709l-110 10v150h407v-150l-110 -10v-729q0 -662 -551 -662q-553 0 -553 662v729zM410 1954h223l268 -316h-184z" />
<glyph unicode="&#xda;" horiz-adv-x="1529" d="M102 1372v150h410v-150l-111 -10v-709q0 -281 80 -396.5t285 -115.5t284.5 117t79.5 395v709l-110 10v150h407v-150l-110 -10v-729q0 -662 -551 -662q-553 0 -553 662v729zM635 1638l268 316h223l-307 -316h-184z" />
<glyph unicode="&#xdb;" horiz-adv-x="1529" d="M102 1372v150h410v-150l-111 -10v-709q0 -281 80 -396.5t285 -115.5t284.5 117t79.5 395v709l-110 10v150h407v-150l-110 -10v-729q0 -662 -551 -662q-553 0 -553 662v729zM375 1638l276 316h244l276 -316h-184l-215 215l-213 -215h-184z" />
<glyph unicode="&#xdc;" horiz-adv-x="1529" d="M102 1372v150h410v-150l-111 -10v-709q0 -281 80 -396.5t285 -115.5t284.5 117t79.5 395v709l-110 10v150h407v-150l-110 -10v-729q0 -662 -551 -662q-553 0 -553 662v729zM446 1661h168v242h-168v-242zM915 1661v242h166v-242h-166z" />
<glyph unicode="&#xdd;" horiz-adv-x="1355" d="M72 1370v152h405v-140l-112 -10l194 -352q82 -150 117 -242h12q18 47 123 242l193 352l-121 10v140h401v-152l-94 -8l-420 -760v-436l111 -10v-156h-408v156l111 10v436l-420 760zM586 1638l268 316h223l-307 -316h-184z" />
<glyph unicode="&#xde;" horiz-adv-x="1308" d="M102 0v150l111 10v1200l-111 10v152h408v-150l-109 -10v-107h201q143 0 245.5 -17t194 -63.5t138.5 -138.5t47 -229v-27q0 -113 -33 -194.5t-86 -130.5t-136 -79t-169 -40t-201 -10h-201v-166l109 -10v-150h-408zM401 494h201q233 0 333.5 57t100.5 229v27 q-2 172 -101 227.5t-333 55.5h-201v-596z" />
<glyph unicode="&#xdf;" horiz-adv-x="1298" d="M80 0v150l110 10v856q0 295 116 445.5t378 150.5q236 0 352.5 -115t116.5 -305v-23q0 -242 -195 -329q109 -43 168.5 -133.5t59.5 -217.5v-49q0 -215 -124 -334.5t-384 -119.5q-59 0 -125 6v143q61 -2 119 -2q176 0 255 73t79 236v47q0 268 -344 269h-109v145h109 q170 0 240.5 69.5t70.5 196.5v23q0 125 -64.5 192.5t-224.5 67.5q-170 0 -239.5 -95t-69.5 -341v-1016h-295z" />
<glyph unicode="&#xe0;" horiz-adv-x="1177" d="M106 291v41q0 207 127 277.5t392 70.5h168v82q0 147 -48.5 192t-216.5 45q-86 0 -188 -6l-18 -119h-142v232q37 14 142.5 31.5t220.5 17.5q137 0 225 -23.5t133 -78t60.5 -121t15.5 -170.5v-602l110 -10v-150h-286v76q-150 -104 -359 -105q-336 1 -336 320zM258 1577h223 l269 -315h-185zM291 276q0 -90 49 -125.5t139 -35.5q88 0 177 29.5t137 60.5v336h-168q-188 0 -261 -40t-73 -169v-56z" />
<glyph unicode="&#xe1;" horiz-adv-x="1177" d="M106 291v41q0 207 127 277.5t392 70.5h168v82q0 147 -48.5 192t-216.5 45q-86 0 -188 -6l-18 -119h-142v232q37 14 142.5 31.5t220.5 17.5q137 0 225 -23.5t133 -78t60.5 -121t15.5 -170.5v-602l110 -10v-150h-286v76q-150 -104 -359 -105q-336 1 -336 320zM291 276 q0 -90 49 -125.5t139 -35.5q88 0 177 29.5t137 60.5v336h-168q-188 0 -261 -40t-73 -169v-56zM467 1262l268 315h223l-307 -315h-184z" />
<glyph unicode="&#xe2;" horiz-adv-x="1177" d="M106 291v41q0 207 127 277.5t392 70.5h168v82q0 147 -48.5 192t-216.5 45q-86 0 -188 -6l-18 -119h-142v232q37 14 142.5 31.5t220.5 17.5q137 0 225 -23.5t133 -78t60.5 -121t15.5 -170.5v-602l110 -10v-150h-286v76q-150 -104 -359 -105q-336 1 -336 320zM176 1262 l277 315h243l277 -315h-185l-215 215l-213 -215h-184zM291 276q0 -90 49 -125.5t139 -35.5q88 0 177 29.5t137 60.5v336h-168q-188 0 -261 -40t-73 -169v-56z" />
<glyph unicode="&#xe3;" horiz-adv-x="1177" d="M106 291v41q0 207 127 277.5t392 70.5h168v82q0 147 -48.5 192t-216.5 45q-86 0 -188 -6l-18 -119h-142v232q37 14 142.5 31.5t220.5 17.5q137 0 225 -23.5t133 -78t60.5 -121t15.5 -170.5v-602l110 -10v-150h-286v76q-150 -104 -359 -105q-336 1 -336 320zM172 1266v69 q0 254 205 254q100 0 198 -78l87 -69q74 -59 120 -60q43 0 57.5 29t14.5 94v70h131v-70q0 -123 -45 -188.5t-154 -65.5q-102 0 -208 84l-84 68q-66 57 -117 57q-41 0 -56.5 -30.5t-15.5 -94.5v-69h-133zM291 276q0 -90 49 -125.5t139 -35.5q88 0 177 29.5t137 60.5v336h-168 q-188 0 -261 -40t-73 -169v-56z" />
<glyph unicode="&#xe4;" horiz-adv-x="1177" d="M106 291v41q0 207 127 277.5t392 70.5h168v82q0 147 -48.5 192t-216.5 45q-86 0 -188 -6l-18 -119h-142v232q37 14 142.5 31.5t220.5 17.5q137 0 225 -23.5t133 -78t60.5 -121t15.5 -170.5v-602l110 -10v-150h-286v76q-150 -104 -359 -105q-336 1 -336 320zM256 1317h168 v242h-168v-242zM291 276q0 -90 49 -125.5t139 -35.5q88 0 177 29.5t137 60.5v336h-168q-188 0 -261 -40t-73 -169v-56zM725 1317v242h166v-242h-166z" />
<glyph unicode="&#xe5;" horiz-adv-x="1177" d="M106 291v41q0 207 127 277.5t392 70.5h168v82q0 147 -48.5 192t-216.5 45q-86 0 -188 -6l-18 -119h-142v232q37 14 142.5 31.5t220.5 17.5q137 0 225 -23.5t133 -78t60.5 -121t15.5 -170.5v-602l110 -10v-150h-286v76q-150 -104 -359 -105q-336 1 -336 320zM291 276 q0 -90 49 -125.5t139 -35.5q88 0 177 29.5t137 60.5v336h-168q-188 0 -261 -40t-73 -169v-56zM336 1450q0 113 66.5 168t175.5 55q106 0 170.5 -55t64.5 -168t-64.5 -168t-170.5 -55q-109 0 -175.5 55t-66.5 168zM463 1450q0 -113 115 -113q113 0 112.5 113t-112.5 113 q-115 0 -115 -113z" />
<glyph unicode="&#xe6;" horiz-adv-x="1847" d="M111 291v41q0 207 127 277.5t391 70.5h168v82q0 147 -48.5 192t-216.5 45q-86 0 -188 -6l-18 -119h-142v232q37 14 142.5 31.5t220.5 17.5q168 0 251 -30.5t126 -96.5q121 125 352 125q481 0 481 -559v-98h-774v-23q0 -86 9 -138t41 -105.5t102.5 -78t185.5 -24.5 q184 0 395 37v-148q-176 -45 -399 -45q-303 0 -420 140q-207 -139 -451 -140q-335 1 -335 320zM295 276q0 -90 49 -125.5t139 -35.5q88 0 177.5 29.5t136.5 60.5v336h-168q-188 0 -261 -40t-73 -169v-56zM985 647h584v21q0 328 -293 327q-291 0 -291 -327v-21z" />
<glyph unicode="&#xe7;" horiz-adv-x="1001" d="M117 479v170q0 506 450 506q219 0 322 -39v-242h-144l-18 117q-61 6 -133 6q-147 0 -220 -74.5t-73 -273.5v-170q0 -199 72.5 -274.5t220.5 -75.5q98 0 295 21v-140q-123 -39 -322 -39q-227 0 -338.5 131t-111.5 377zM231 -430l238 291h229l-278 -291h-189z" />
<glyph unicode="&#xe8;" horiz-adv-x="1165" d="M111 514v86q0 268 119.5 411.5t357.5 143.5q483 0 483 -577v-82h-776v-23q0 -84 10 -137t43 -104.5t103.5 -76t183.5 -24.5q205 0 393 33v-148q-172 -45 -401 -45q-289 0 -402.5 129t-113.5 414zM264 1577h223l269 -315h-185zM297 647h584v21q0 49 -5.5 88t-22.5 86 t-47 78.5t-85 53t-131 21.5q-293 0 -293 -327v-21z" />
<glyph unicode="&#xe9;" horiz-adv-x="1165" d="M111 514v86q0 268 119.5 411.5t357.5 143.5q483 0 483 -577v-82h-776v-23q0 -84 10 -137t43 -104.5t103.5 -76t183.5 -24.5q205 0 393 33v-148q-172 -45 -401 -45q-289 0 -402.5 129t-113.5 414zM297 647h584v21q0 49 -5.5 88t-22.5 86t-47 78.5t-85 53t-131 21.5 q-293 0 -293 -327v-21zM483 1262l269 315h223l-307 -315h-185z" />
<glyph unicode="&#xea;" horiz-adv-x="1165" d="M111 514v86q0 268 119.5 411.5t357.5 143.5q483 0 483 -577v-82h-776v-23q0 -84 10 -137t43 -104.5t103.5 -76t183.5 -24.5q205 0 393 33v-148q-172 -45 -401 -45q-289 0 -402.5 129t-113.5 414zM199 1262l276 315h244l276 -315h-184l-215 215l-213 -215h-184zM297 647 h584v21q0 49 -5.5 88t-22.5 86t-47 78.5t-85 53t-131 21.5q-293 0 -293 -327v-21z" />
<glyph unicode="&#xeb;" horiz-adv-x="1165" d="M111 514v86q0 268 119.5 411.5t357.5 143.5q483 0 483 -577v-82h-776v-23q0 -84 10 -137t43 -104.5t103.5 -76t183.5 -24.5q205 0 393 33v-148q-172 -45 -401 -45q-289 0 -402.5 129t-113.5 414zM279 1317h167v242h-167v-242zM297 647h584v21q0 49 -5.5 88t-22.5 86 t-47 78.5t-85 53t-131 21.5q-293 0 -293 -327v-21zM748 1317v242h165v-242h-165z" />
<glyph unicode="&#xec;" horiz-adv-x="583" d="M-74 1577h224l268 -315h-185zM90 0v152l111 8v805l-111 10v151h295v-966l111 -8v-152h-406z" />
<glyph unicode="&#xed;" horiz-adv-x="583" d="M90 0v152l111 8v805l-111 10v151h295v-966l111 -8v-152h-406zM143 1262l269 315h223l-307 -315h-185z" />
<glyph unicode="&#xee;" horiz-adv-x="583" d="M-111 1262l277 315h244l276 -315h-184l-215 215l-213 -215h-185zM90 0v152l111 8v805l-111 10v151h295v-966l111 -8v-152h-406z" />
<glyph unicode="&#xef;" horiz-adv-x="583" d="M-29 1317h168v242h-168v-242zM90 0v152l111 8v805l-111 10v151h295v-966l111 -8v-152h-406zM440 1317v242h166v-242h-166z" />
<glyph unicode="&#xf0;" horiz-adv-x="1189" d="M115 483v138q0 250 121.5 379.5t357.5 129.5q135 0 233 -57q-74 199 -239 289l-275 -178l-73 98l206 141q-127 31 -247 31q-27 0 -47 -2v147q23 2 57 3q221 0 391 -68l164 104l76 -96l-109 -76q344 -227 344 -845v-138q0 -250 -122 -380t-359 -130q-236 0 -357.5 130 t-121.5 380zM299 483q0 -184 70.5 -267t224.5 -83q156 0 226.5 82t70.5 268v138q0 186 -70.5 269t-226.5 83q-154 0 -224.5 -83t-70.5 -269v-138z" />
<glyph unicode="&#xf1;" horiz-adv-x="1310" d="M90 0v150l111 10v805l-111 10v151h293v-88q227 117 375 117q211 0 281.5 -104.5t70.5 -331.5v-559l111 -10v-150h-295v719q0 160 -38 219t-151 59q-125 0 -354 -100v-737l111 -10v-150h-404zM231 1268v69q0 254 205 254q100 0 199 -78l86 -69q74 -59 121 -60q43 0 57 29 t14 94v70h131v-70q0 -123 -45 -188.5t-153 -65.5q-102 0 -209 84l-84 68q-66 57 -117 57q-41 0 -56 -30.5t-15 -94.5v-69h-134z" />
<glyph unicode="&#xf2;" horiz-adv-x="1191" d="M115 481v164q0 248 121.5 379t357.5 131q238 0 359.5 -131t121.5 -379v-164q0 -248 -122 -379t-359 -131q-236 0 -357.5 131t-121.5 379zM229 1577h224l268 -315h-184zM299 481q0 -182 70.5 -265t224.5 -83q156 0 226.5 83t70.5 265v164q0 182 -70.5 265t-226.5 83 q-154 0 -224.5 -83t-70.5 -265v-164z" />
<glyph unicode="&#xf3;" horiz-adv-x="1191" d="M115 481v164q0 248 121.5 379t357.5 131q238 0 359.5 -131t121.5 -379v-164q0 -248 -122 -379t-359 -131q-236 0 -357.5 131t-121.5 379zM299 481q0 -182 70.5 -265t224.5 -83q156 0 226.5 83t70.5 265v164q0 182 -70.5 265t-226.5 83q-154 0 -224.5 -83t-70.5 -265v-164 zM461 1262l268 315h223l-307 -315h-184z" />
<glyph unicode="&#xf4;" horiz-adv-x="1191" d="M115 481v164q0 248 121.5 379t357.5 131q238 0 359.5 -131t121.5 -379v-164q0 -248 -122 -379t-359 -131q-236 0 -357.5 131t-121.5 379zM197 1262l276 315h244l276 -315h-184l-215 215l-213 -215h-184zM299 481q0 -182 70.5 -265t224.5 -83q156 0 226.5 83t70.5 265v164 q0 182 -70.5 265t-226.5 83q-154 0 -224.5 -83t-70.5 -265v-164z" />
<glyph unicode="&#xf5;" horiz-adv-x="1191" d="M115 481v164q0 248 121.5 379t357.5 131q238 0 359.5 -131t121.5 -379v-164q0 -248 -122 -379t-359 -131q-236 0 -357.5 131t-121.5 379zM186 1268v69q0 254 205 254q100 0 199 -78l86 -69q74 -59 121 -60q43 0 57 29t14 94v70h131v-70q0 -123 -45 -188.5t-153 -65.5 q-102 0 -209 84l-84 68q-66 57 -117 57q-41 0 -56.5 -30.5t-15.5 -94.5v-69h-133zM299 481q0 -182 70.5 -265t224.5 -83q156 0 226.5 83t70.5 265v164q0 182 -70.5 265t-226.5 83q-154 0 -224.5 -83t-70.5 -265v-164z" />
<glyph unicode="&#xf6;" horiz-adv-x="1191" d="M115 481v164q0 248 121.5 379t357.5 131q238 0 359.5 -131t121.5 -379v-164q0 -248 -122 -379t-359 -131q-236 0 -357.5 131t-121.5 379zM279 1317h167v242h-167v-242zM299 481q0 -182 70.5 -265t224.5 -83q156 0 226.5 83t70.5 265v164q0 182 -70.5 265t-226.5 83 q-154 0 -224.5 -83t-70.5 -265v-164zM748 1317v242h165v-242h-165z" />
<glyph unicode="&#xf7;" d="M229 725h977v152h-977v-152zM625 240v274h188v-274h-188zM625 1081v273h188v-273h-188z" />
<glyph unicode="&#xf8;" horiz-adv-x="1191" d="M49 -49l150 196q-84 127 -84 334v164q0 248 121.5 379t357.5 131q186 0 307 -86l82 107h191l-170 -222q72 -125 71 -309v-164q0 -248 -122 -379t-359 -131q-170 0 -285 70l-69 -90h-191zM299 481q0 -106 20 -174l478 625q-72 61 -203 61q-154 0 -224.5 -83t-70.5 -265 v-164zM412 178q70 -45 182 -45q154 0 225.5 83t71.5 265v164q0 70 -14 141z" />
<glyph unicode="&#xf9;" horiz-adv-x="1310" d="M90 975v151h293v-718q0 -160 38 -219.5t152 -59.5q123 0 353 100v736l-111 10v151h295v-966l111 -10v-150h-295v88q-229 -117 -391 -117q-193 0 -263.5 114t-70.5 323v557zM291 1577h223l268 -315h-184z" />
<glyph unicode="&#xfa;" horiz-adv-x="1310" d="M90 975v151h293v-718q0 -160 38 -219.5t152 -59.5q123 0 353 100v736l-111 10v151h295v-966l111 -10v-150h-295v88q-229 -117 -391 -117q-193 0 -263.5 114t-70.5 323v557zM524 1262l269 315h223l-307 -315h-185z" />
<glyph unicode="&#xfb;" horiz-adv-x="1310" d="M90 975v151h293v-718q0 -160 38 -219.5t152 -59.5q123 0 353 100v736l-111 10v151h295v-966l111 -10v-150h-295v88q-229 -117 -391 -117q-193 0 -263.5 114t-70.5 323v557zM250 1262l276 315h244l277 -315h-185l-215 215l-213 -215h-184z" />
<glyph unicode="&#xfc;" horiz-adv-x="1310" d="M90 975v151h293v-718q0 -160 38 -219.5t152 -59.5q123 0 353 100v736l-111 10v151h295v-966l111 -10v-150h-295v88q-229 -117 -391 -117q-193 0 -263.5 114t-70.5 323v557zM328 1317h168v242h-168v-242zM797 1317v242h166v-242h-166z" />
<glyph unicode="&#xfd;" horiz-adv-x="1312" d="M82 975v151h383v-137l-64 -6l177 -489q41 -119 90 -299h4q35 150 86 301l160 487l-68 6v137h381v-151l-127 -10l-369 -1063q-33 -92 -59.5 -148.5t-69.5 -109t-104.5 -76t-145.5 -23.5q-123 0 -219 21v141q117 -8 213 -8q80 0 118 45t85 176l29 80l-373 965zM553 1262 l268 315h223l-307 -315h-184z" />
<glyph unicode="&#xfe;" horiz-adv-x="1226" d="M90 -279l111 11v1691l-111 11v151h293v-532q156 102 313 102q416 0 416 -496v-172q0 -514 -475 -514q-100 0 -254 31v-272l111 -11v-151h-404v151zM383 158q162 -29 252 -29q147 0 221 77t74 281v172q0 174 -62.5 254t-191.5 80q-123 0 -293 -84v-751z" />
<glyph unicode="&#xff;" horiz-adv-x="1312" d="M82 975v151h383v-137l-64 -6l177 -489q41 -119 90 -299h4q35 150 86 301l160 487l-68 6v137h381v-151l-127 -10l-369 -1063q-33 -92 -59.5 -148.5t-69.5 -109t-104.5 -76t-145.5 -23.5q-123 0 -219 21v141q117 -8 213 -8q80 0 118 45t85 176l29 80l-373 965zM352 1317 h168v242h-168v-242zM821 1317v242h166v-242h-166z" />
<glyph unicode="&#x152;" horiz-adv-x="2037" d="M131 651v217q0 328 151.5 503t444.5 175q123 0 285 -24h864v-310h-147l-21 142h-545v-480h670v-169h-670v-539h545l21 145h147v-311h-864q-201 -29 -283 -29q-295 0 -446.5 176t-151.5 504zM322 651q0 -512 407 -512q104 0 246 21v1196q-147 23 -246 22q-408 0 -407 -510 v-217z" />
<glyph unicode="&#x153;" horiz-adv-x="1961" d="M113 481v164q0 248 121.5 379t357.5 131q268 0 391 -166q119 166 383 166q244 0 363.5 -144.5t119.5 -416.5v-98h-776v-23q0 -68 5 -111t23.5 -93t54.5 -77.5t100.5 -46t156.5 -18.5q182 0 393 37v-148q-172 -45 -399 -45q-311 0 -430 160q-121 -160 -385 -160 q-236 0 -357.5 131t-121.5 379zM297 481q0 -182 70.5 -266t224.5 -84q156 0 226.5 84t70.5 266v164q0 182 -70.5 267t-226.5 85q-152 0 -223.5 -85t-71.5 -267v-164zM1075 647h584v21q0 330 -291 329q-287 0 -293 -297v-53z" />
<glyph unicode="&#x178;" horiz-adv-x="1355" d="M72 1370v152h405v-140l-112 -10l194 -352q82 -150 117 -242h12q18 47 123 242l193 352l-121 10v140h401v-152l-94 -8l-420 -760v-436l111 -10v-156h-408v156l111 10v436l-420 760zM362 1675h168v242h-168v-242zM831 1675v242h166v-242h-166z" />
<glyph unicode="&#x2c6;" horiz-adv-x="935" d="M70 1262l276 315h244l276 -315h-184l-215 215l-213 -215h-184z" />
<glyph unicode="&#x2dc;" horiz-adv-x="935" d="M68 1268v69q0 254 204 254q100 0 199 -78l86 -69q74 -59 121 -60q43 0 57.5 29t14.5 94v70h131v-70q0 -123 -45 -188.5t-154 -65.5q-102 0 -209 84l-84 68q-66 57 -117 57q-41 0 -56 -30.5t-15 -94.5v-69h-133z" />
<glyph unicode="&#x2000;" horiz-adv-x="1003" />
<glyph unicode="&#x2001;" horiz-adv-x="2007" />
<glyph unicode="&#x2002;" horiz-adv-x="1003" />
<glyph unicode="&#x2003;" horiz-adv-x="2007" />
<glyph unicode="&#x2004;" horiz-adv-x="667" />
<glyph unicode="&#x2005;" horiz-adv-x="501" />
<glyph unicode="&#x2006;" horiz-adv-x="333" />
<glyph unicode="&#x2007;" horiz-adv-x="333" />
<glyph unicode="&#x2008;" horiz-adv-x="249" />
<glyph unicode="&#x2009;" horiz-adv-x="401" />
<glyph unicode="&#x200a;" horiz-adv-x="110" />
<glyph unicode="&#x2010;" horiz-adv-x="811" d="M152 522v154h505v-154h-505z" />
<glyph unicode="&#x2011;" horiz-adv-x="811" d="M152 522v154h505v-154h-505z" />
<glyph unicode="&#x2012;" horiz-adv-x="811" d="M152 522v154h505v-154h-505z" />
<glyph unicode="&#x2013;" horiz-adv-x="1032" d="M152 522v156h729v-156h-729z" />
<glyph unicode="&#x2014;" horiz-adv-x="1316" d="M152 522v156h1013v-156h-1013z" />
<glyph unicode="&#x2018;" horiz-adv-x="374" d="M41 1116l154 469h139l-96 -469h-197z" />
<glyph unicode="&#x2019;" horiz-adv-x="374" d="M41 1116l98 469h195l-152 -469h-141z" />
<glyph unicode="&#x201a;" horiz-adv-x="374" d="M41 -193l98 467h195l-152 -467h-141z" />
<glyph unicode="&#x201c;" horiz-adv-x="749" d="M41 1116l152 469h141l-98 -469h-195zM416 1116l151 469h142l-99 -469h-194z" />
<glyph unicode="&#x201d;" horiz-adv-x="749" d="M41 1116l98 469h195l-152 -469h-141zM416 1116l98 469h195l-152 -469h-141z" />
<glyph unicode="&#x201e;" horiz-adv-x="749" d="M41 -193h141l152 467h-195zM416 -193l98 467h195l-152 -467h-141z" />
<glyph unicode="&#x2022;" horiz-adv-x="1091" d="M180 756q0 152 106.5 259t258 107t259 -107.5t107.5 -259t-107.5 -258t-259 -106.5t-258 107.5t-106.5 257.5z" />
<glyph unicode="&#x2026;" horiz-adv-x="1683" d="M170 0v283h186v-283h-186zM750 0h184v283h-184v-283zM1327 0v283h184v-283h-184z" />
<glyph unicode="&#x202f;" horiz-adv-x="401" />
<glyph unicode="&#x2039;" horiz-adv-x="782" d="M113 592l333 422h218l-324 -422l324 -426h-218z" />
<glyph unicode="&#x203a;" horiz-adv-x="782" d="M117 166l325 426l-325 422h217l336 -422l-336 -426h-217z" />
<glyph unicode="&#x205f;" horiz-adv-x="501" />
<glyph unicode="&#x20ac;" horiz-adv-x="1366" d="M127 510v145h131q-5 68 -5 127q0 44 3 82h-129v146h145q20 168 78 280.5t146 164.5t174 71.5t196 19.5q197 0 357 -35v-280h-146l-22 143q-84 6 -178 6q-66 0 -114 -6t-100.5 -28.5t-87 -61.5t-64.5 -108.5t-44 -165.5h676l-41 -146h-653q-3 -37 -3 -80q0 -58 5 -129h587 l-39 -145h-528q18 -121 57 -199t97.5 -112.5t114 -47t137.5 -12.5q98 0 346 23v-156q-164 -35 -357 -35q-109 0 -194.5 20.5t-171.5 74t-144.5 166t-81.5 278.5h-147z" />
<glyph unicode="&#x2122;" horiz-adv-x="1816" d="M88 1325v197h643v-197h-100l-13 76h-131v-567l68 -7v-112h-289v112l68 7v567h-133l-13 -76h-100zM793 715v112l67 7v569l-67 6v113h243l166 -285q25 -41 49 -94h2q39 78 50 94l167 285h246v-113l-67 -6v-569l67 -7v-112h-286v112l67 7v344q0 84 6 159h-2 q-49 -96 -65 -125l-123 -198h-121l-119 198q-25 41 -67 125h-2q6 -76 6 -159v-344l67 -7v-112h-284z" />
<glyph unicode="&#xe000;" horiz-adv-x="1125" d="M0 1125h1125v-1125h-1125v1125z" />
<glyph unicode="&#xfb01;" horiz-adv-x="1333" d="M70 993v133h215v136q0 82 8 136t35.5 107.5t89 80t155.5 26.5q121 0 220 -29v-125q-123 8 -199 8q-84 0 -105.5 -43t-21.5 -161v-136h668v-966l108 -8v-152h-405v152l112 8v813h-483v-813l111 -10v-150h-404v150l111 10v813zM948 1335v250h189v-250h-189z" />
<glyph unicode="&#xfb02;" horiz-adv-x="1343" d="M70 993v133h215v136q0 195 85 272.5t267 77.5q94 0 326 -27h184v-1425l110 -10v-150h-405v150l111 10v1292q-164 14 -304 14q-111 0 -151.5 -37.5t-40.5 -166.5v-136h319v-153h-319v-813l111 -10v-150h-404v150l111 10v813z" />
<glyph unicode="&#xfb03;" horiz-adv-x="1996" d="M72 993v133h213v136q0 80 9 133t35.5 107t88 82t157.5 28q121 0 220 -29v-125q-123 8 -199 8q-84 0 -105.5 -43t-21.5 -161v-136h483v136q0 80 8.5 133t36 107t89 82t155.5 28q121 0 219 -29v-125q-123 8 -198 8q-84 0 -105.5 -43t-21.5 -161v-136h663v-966l111 -8v-152 h-406v152l111 8v813h-479v-813l110 -10v-150h-403v150l110 10v813h-483v-813l111 -10v-150h-406v150l111 10v813zM1612 1335v250h190v-250h-190z" />
<glyph unicode="&#xfb04;" horiz-adv-x="2011" d="M72 993v133h213v136q0 80 9 133t36.5 107t89 82t155.5 28q121 0 220 -29v-125q-123 8 -199 8q-84 0 -105.5 -43t-21.5 -161v-136h481v136q0 195 85 272.5t270 77.5q90 0 321 -27h184v-1425l111 -10v-150h-405v150l110 10v1292q-164 14 -299 14q-113 0 -152.5 -37.5 t-39.5 -166.5v-136h319v-153h-319v-813l110 -10v-150h-405v150l110 10v813h-481v-813l111 -10v-150h-406v150l111 10v813z" />
</font>
</defs>
</svg>
