<?xml version="1.0" standalone="no"?>
<!DOCTYPE svg PUBLIC "-//W3C//DTD SVG 1.1//EN" "http://www.w3.org/Graphics/SVG/1.1/DTD/svg11.dtd" >
<svg xmlns="http://www.w3.org/2000/svg" xmlns:xlink="http://www.w3.org/1999/xlink" version="1.1">
<metadata></metadata>
<defs>
<font id="dinschriftregular" horiz-adv-x="758" >
<font-face units-per-em="2048" ascent="1638" descent="-410" />
<missing-glyph horiz-adv-x="381" />
<glyph horiz-adv-x="0" />
<glyph unicode="&#xd;" horiz-adv-x="0" />
<glyph unicode=" "  horiz-adv-x="381" />
<glyph unicode="&#x09;" horiz-adv-x="381" />
<glyph unicode="&#xa0;" horiz-adv-x="381" />
<glyph unicode="!" horiz-adv-x="492" d="M115 1458h262l-80 -1098h-102zM141 0v209h209v-209h-209z" />
<glyph unicode="&#x22;" horiz-adv-x="569" d="M68 1098v360h163v-360h-163zM338 1098v360h164v-360h-164z" />
<glyph unicode="#" horiz-adv-x="762" d="M12 440v123h121l45 332h-102v123h119l59 440h139l-59 -440h172l59 440h140l-60 -440h105v-123h-121l-45 -332h102v-123h-119l-59 -440h-139l59 440h-172l-59 -440h-140l60 440h-105zM272 563h172l45 332h-172z" />
<glyph unicode="$" horiz-adv-x="762" d="M23 330v82h208v-74q0 -52 24.5 -91t74.5 -50v471l-70 28q-89 37 -138 88.5t-69 120.5t-20 166q0 80 18.5 146.5t55.5 120t94.5 88.5t128.5 44v154h104v-154q91 -10 160.5 -59t107 -121t37.5 -149v-103h-209v47q0 145 -96 177v-412l86 -35q88 -33 136.5 -85.5t65.5 -126 t17 -187.5q0 -399 -305 -428v-172h-104v172q-88 10 -158 57t-109.5 121.5t-39.5 163.5zM242 1073q0 -79 15.5 -115t72.5 -63v367q-88 -34 -88 -189zM434 197q42 10 63 37.5t27 69.5t6 110q0 70 -7 109t-26 59.5t-63 40.5v-426z" />
<glyph unicode="%" horiz-adv-x="721" d="M18 1169v134q0 77 47.5 122t127.5 45t127 -45t47 -122v-134q0 -70 -47.5 -112.5t-126.5 -42.5t-127 42.5t-48 112.5zM43 0l500 1458h135l-500 -1458h-135zM141 1190q0 -23 16 -38t36 -15q21 0 36 15t15 38v104q0 22 -15 38t-36 16q-20 0 -36 -16t-16 -38v-104zM354 143 v133q0 78 47.5 123t126.5 45q80 0 127 -45t47 -123v-133q0 -70 -47.5 -112.5t-126.5 -42.5q-78 0 -126 42.5t-48 112.5zM477 164q0 -23 15 -38t36 -15q22 0 37 15t15 38v104q0 22 -15 38t-37 16q-21 0 -36 -16t-15 -38v-104z" />
<glyph unicode="&#x26;" horiz-adv-x="985" d="M74 326q0 110 52.5 202t147.5 177q-127 181 -127 335q0 78 32.5 143t97 102.5t155.5 37.5q86 0 149 -35.5t95.5 -95.5t32.5 -133q0 -175 -213 -367q15 -23 82.5 -134.5t109.5 -170.5l113 154l129 -90l-156 -201l158 -250h-209l-70 111q-123 -123 -278 -123 q-83 0 -152 42.5t-109 120t-40 175.5zM258 336q0 -75 44.5 -129.5t111.5 -54.5q44 0 86.5 27.5t68.5 60.5l-200 319q-111 -113 -111 -223zM332 1036q0 -79 80 -211q55 53 90 106.5t35 123.5q0 41 -28.5 72.5t-72.5 31.5q-45 0 -74.5 -36t-29.5 -87z" />
<glyph unicode="'" horiz-adv-x="381" d="M109 1098v360h163v-360h-163z" />
<glyph unicode="(" horiz-adv-x="455" d="M102 627q0 140 29.5 290t84.5 289t130 252h70q-37 -127 -61 -276t-34 -306t-10 -307q0 -138 12.5 -271t35 -256t57.5 -247h-70q-62 90 -106.5 190.5t-76.5 216t-46.5 220.5t-14.5 205z" />
<glyph unicode=")" horiz-adv-x="455" d="M39 -205q38 131 61.5 282.5t33 304t9.5 302.5q0 395 -104 774h70q115 -166 179 -394t64 -437q0 -103 -17 -215.5t-49 -223t-76.5 -210.5t-100.5 -183h-70z" />
<glyph unicode="*" d="M63 1010l205 112l-205 115l58 106l201 -122l-9 237h131l-8 -237l201 122l57 -106l-205 -115l205 -112l-57 -109l-201 123l8 -238h-131l9 238l-201 -123z" />
<glyph unicode="+" horiz-adv-x="1229" d="M96 436v164h436v436h164v-436h437v-164h-437v-436h-164v436h-436z" />
<glyph unicode="," horiz-adv-x="381" d="M86 -152v361h209v-209z" />
<glyph unicode="-" horiz-adv-x="797" d="M90 463v209h617v-209h-617z" />
<glyph unicode="." horiz-adv-x="381" d="M86 0v209h209v-209h-209z" />
<glyph unicode="/" horiz-adv-x="455" d="M10 -12l271 1482h163l-270 -1482h-164z" />
<glyph unicode="0" horiz-adv-x="762" d="M70 301v856q0 94 42.5 165.5t113.5 109.5t155 38q63 0 119.5 -21.5t99.5 -62t67.5 -99.5t24.5 -130v-856q0 -94 -42.5 -165.5t-113.5 -109.5t-155 -38t-155 38t-113.5 109.5t-42.5 165.5zM279 301q0 -43 28.5 -73.5t73.5 -30.5t73.5 30.5t28.5 73.5v856q0 28 -12.5 52.5 t-36.5 38.5t-53 14t-53 -14t-36.5 -38.5t-12.5 -52.5v-856z" />
<glyph unicode="1" horiz-adv-x="762" d="M109 1083v222l208 153h209v-1458h-209v1237z" />
<glyph unicode="2" horiz-adv-x="762" d="M70 0v197l376 710q26 49 31.5 86t5.5 107q0 78 -17 120t-85 42q-47 0 -74.5 -27.5t-27.5 -77.5v-119h-209v115q0 86 42 159t114 115.5t157 42.5q103 0 173 -49.5t103 -132.5t33 -184q0 -110 -11 -161.5t-58 -141.5l-308 -592h377v-209h-622z" />
<glyph unicode="3" horiz-adv-x="762" d="M70 299v119h209v-109q0 -48 28 -80t74 -32q47 0 74.5 32t27.5 84v209q0 85 -31.5 111t-134.5 26v185q67 0 101.5 9.5t49.5 37t15 80.5v188q0 45 -28 74t-74 29q-49 0 -75.5 -32.5t-26.5 -70.5v-119h-209v121q0 83 42.5 154.5t115 113t157.5 41.5q77 0 136.5 -31t90.5 -71 q45 -51 62.5 -113.5t17.5 -195.5q0 -109 -8 -158.5t-33.5 -79.5t-87.5 -67q65 -41 91 -77t32 -86.5t6 -170.5q0 -139 -11 -195t-44 -104q-89 -133 -258 -133q-72 0 -143.5 32t-118.5 101.5t-47 177.5z" />
<glyph unicode="4" horiz-adv-x="762" d="M18 217v197l301 1044h222l-314 -1044h207v415h209v-415h100v-197h-100v-217h-209v217h-416z" />
<glyph unicode="5" horiz-adv-x="762" d="M70 301v61h209v-53q0 -51 29.5 -81.5t76.5 -30.5q46 0 72 29t26 79v342q0 44 -28 74.5t-70 30.5q-46 0 -67.5 -23t-38.5 -57h-185v786h598v-196h-413v-394q70 68 174 68q109 0 174 -66.5t65 -191.5v-377q0 -94 -42.5 -165.5t-113.5 -109.5t-155 -38t-155 38t-113.5 109.5 t-42.5 165.5z" />
<glyph unicode="6" horiz-adv-x="762" d="M70 301v856q0 94 42.5 165.5t113.5 109.5t155 38q63 0 119.5 -21.5t99.5 -62t67.5 -99.5t24.5 -130h-209q0 28 -12.5 52.5t-36.5 38.5t-53 14t-53 -14t-36.5 -38.5t-12.5 -52.5v-196q102 47 192 47q54 0 102 -27t74 -68q45 -69 45 -192v-420q0 -94 -42.5 -165.5 t-113.5 -109.5t-155 -38t-155 38t-113.5 109.5t-42.5 165.5zM279 301q0 -45 30.5 -74.5t71.5 -29.5t71.5 29.5t30.5 74.5v418q0 47 -30.5 75.5t-71.5 28.5t-71.5 -28.5t-30.5 -75.5v-418z" />
<glyph unicode="7" horiz-adv-x="762" d="M70 1094v364h622v-209l-354 -1249h-221l366 1262h-229v-168h-184z" />
<glyph unicode="8" horiz-adv-x="762" d="M70 408q0 129 5.5 185t27 95.5t71.5 77.5q-51 41 -72 78.5t-26.5 84t-5.5 148.5q0 116 15.5 170.5t59.5 110.5q41 53 103 82.5t133 29.5t133 -29.5t102 -82.5q44 -55 60 -110t16 -171q0 -140 -17 -197.5t-87 -113.5q71 -54 87.5 -117.5t16.5 -240.5q0 -132 -11.5 -187 t-45.5 -104q-36 -56 -102 -92.5t-152 -36.5t-151 36t-103 93q-34 52 -45.5 109t-11.5 182zM279 299q0 -43 30.5 -72.5t71.5 -29.5t71.5 29.5t30.5 72.5v287q0 43 -30.5 72.5t-71.5 29.5t-71.5 -29.5t-30.5 -72.5v-287zM279 946q0 -43 30.5 -72.5t71.5 -29.5t71.5 29.5 t30.5 72.5v213q0 44 -30.5 73.5t-71.5 29.5t-71.5 -29.5t-30.5 -73.5v-213z" />
<glyph unicode="9" horiz-adv-x="762" d="M70 301h209q0 -43 28.5 -73.5t73.5 -30.5t73.5 30.5t28.5 73.5v197q-99 -47 -192 -47q-54 0 -100.5 26t-75.5 68q-28 45 -36.5 85t-8.5 107v420q0 94 42.5 165.5t113.5 109.5t155 38q63 0 119.5 -21.5t99.5 -62t67.5 -99.5t24.5 -130v-856q0 -94 -42.5 -165.5 t-113.5 -109.5t-155 -38t-155 38t-113.5 109.5t-42.5 165.5zM279 739q0 -45 30.5 -74.5t71.5 -29.5t71.5 29.5t30.5 74.5v418q0 47 -30 76t-72 29t-72 -29t-30 -76v-418z" />
<glyph unicode=":" horiz-adv-x="381" d="M86 0v209h209v-209h-209zM86 465v209h209v-209h-209z" />
<glyph unicode=";" horiz-adv-x="381" d="M86 -152v361h209v-209zM86 465v209h209v-209h-209z" />
<glyph unicode="&#x3c;" horiz-adv-x="1229" d="M96 457v123l1037 473v-164l-814 -371l814 -371v-163z" />
<glyph unicode="=" horiz-adv-x="1229" d="M96 231v164h1037v-164h-1037zM96 641v164h1037v-164h-1037z" />
<glyph unicode="&#x3e;" horiz-adv-x="1229" d="M96 -16v163l813 371l-813 371v164l1037 -473v-123z" />
<glyph unicode="?" d="M66 1038v121q0 84 42 155.5t114.5 113.5t158.5 42q74 0 136.5 -29.5t105.5 -86.5q42 -55 55.5 -104t13.5 -146q0 -110 -6.5 -155.5t-26.5 -78.5l-141 -241q-35 -64 -35 -105v-164h-209v191q0 80 52 166l131 213q26 45 26 119v108q0 44 -29.5 74.5t-72.5 30.5 q-40 0 -73.5 -29t-33.5 -76v-119h-208zM274 0v209h209v-209h-209z" />
<glyph unicode="@" horiz-adv-x="1638" d="M111 733q0 200 105 370t283 268.5t386 98.5q143 0 271.5 -44t227.5 -127t154 -195.5t55 -245.5q0 -122 -45.5 -227.5t-118 -182.5t-155 -120t-148.5 -43q-144 0 -159 129h-4q-58 -62 -111.5 -95.5t-138.5 -33.5q-84 0 -152 42t-104.5 113t-36.5 156q0 138 61 267.5 t171 211.5t247 82q51 0 97 -17.5t82.5 -53.5t56.5 -89h4l41 125h129l-179 -563q-20 -62 -20 -92q0 -59 47 -59q63 0 129 68.5t108 171.5t42 200q0 105 -43.5 195t-120 155.5t-175 101t-210.5 35.5q-168 0 -310.5 -85.5t-225.5 -227t-83 -299.5q0 -125 48 -233.5t135.5 -192 t201.5 -129t244 -45.5q144 0 283.5 62t214.5 153h157q-65 -109 -169.5 -187.5t-232.5 -120.5t-269 -42q-211 0 -388 97t-279.5 268t-102.5 380zM584 610q0 -83 46 -130.5t124 -47.5q57 0 111 39.5t95.5 101.5t66 135t24.5 132q0 76 -40 123t-112 47q-85 0 -157.5 -62.5 t-115 -156.5t-42.5 -181z" />
<glyph unicode="A" horiz-adv-x="834" d="M4 0l326 1458h174l325 -1458h-208l-62 313h-285l-61 -313h-209zM311 510h209l-102 528h-4z" />
<glyph unicode="B" horiz-adv-x="872" d="M98 0v1458h305q128 0 212 -51t121.5 -133.5t37.5 -183.5v-54q0 -109 -33 -165t-110 -105q74 -35 108.5 -104t34.5 -183v-82q0 -99 -22.5 -170.5t-71.5 -123t-123 -77.5t-174 -26h-285zM307 209h90q80 0 119 30t50.5 79.5t11.5 136.5q0 118 -35.5 169.5t-143.5 51.5h-92 v-467zM307 860h94q68 0 107 23t54.5 67t15.5 115q0 100 -42.5 148.5t-142.5 48.5h-86v-402z" />
<glyph unicode="C" horiz-adv-x="834" d="M86 332v803q0 94 43 171t120.5 120.5t176.5 43.5q94 0 171 -44.5t121 -125t44 -178.5v-82h-209v70q0 64 -35 108t-94 44q-74 0 -101.5 -43.5t-27.5 -126.5v-746q0 -149 127 -149q52 0 91.5 34.5t39.5 112.5v72h209v-90q0 -90 -44 -167.5t-120.5 -124t-167.5 -46.5 q-87 0 -165.5 32.5t-128.5 109.5t-50 202z" />
<glyph unicode="D" horiz-adv-x="872" d="M98 0v1458h310q115 0 198 -45t125.5 -129.5t42.5 -202.5v-682q0 -134 -44.5 -223t-130 -132.5t-210.5 -43.5h-291zM307 197h96q87 0 124.5 43.5t37.5 138.5v702q0 91 -36.5 136t-125.5 45h-96v-1065z" />
<glyph unicode="E" d="M98 0v1458h623v-196h-414v-428h361v-197h-361v-428h414v-209h-623z" />
<glyph unicode="F" d="M98 0v1458h623v-196h-414v-443h361v-196h-361v-623h-209z" />
<glyph unicode="G" horiz-adv-x="872" d="M86 344v770q0 113 50 193.5t131 121.5t169 41t169 -41t131 -121.5t50 -193.5v-74h-208v74q0 49 -19 82t-51.5 49.5t-71.5 16.5q-60 0 -100.5 -38t-40.5 -110v-770q0 -72 40.5 -109.5t100.5 -37.5q39 0 71 16t51.5 48.5t19.5 82.5v274h-166v185h374v-459 q0 -113 -50 -193.5t-131 -121.5t-169 -41t-169 41t-131 121.5t-50 193.5z" />
<glyph unicode="H" horiz-adv-x="872" d="M98 0v1458h209v-624h258v624h209v-1458h-209v649h-258v-649h-209z" />
<glyph unicode="I" horiz-adv-x="418" d="M104 0v1458h209v-1458h-209z" />
<glyph unicode="J" horiz-adv-x="682" d="M-45 119l164 131q51 -53 114 -53q53 0 97.5 39.5t44.5 136.5v1085h209v-1114q0 -150 -97 -253t-260 -103q-157 0 -272 131z" />
<glyph unicode="K" horiz-adv-x="872" d="M98 0v1458h209v-665h4l305 665h209l-284 -584l338 -874h-222l-237 647l-113 -211v-436h-209z" />
<glyph unicode="L" d="M98 0v1458h209v-1249h414v-209h-623z" />
<glyph unicode="M" horiz-adv-x="1139" d="M98 0v1458h201l268 -772h4l267 772h202v-1458h-209v887h-4l-206 -627h-105l-205 627h-4v-887h-209z" />
<glyph unicode="N" horiz-adv-x="909" d="M90 0v1458h201l315 -878h4v878h209v-1458h-196l-320 877h-4v-877h-209z" />
<glyph unicode="O" horiz-adv-x="872" d="M86 344v770q0 113 50 193.5t131 121.5t169 41t169 -41t131 -121.5t50 -193.5v-770q0 -113 -50 -193.5t-131 -121.5t-169 -41t-169 41t-131 121.5t-50 193.5zM295 344q0 -72 40.5 -109.5t100.5 -37.5q39 0 71 16t51.5 48.5t19.5 82.5v770q0 49 -19 82t-51.5 49.5 t-71.5 16.5q-60 0 -100.5 -38t-40.5 -110v-770z" />
<glyph unicode="P" horiz-adv-x="834" d="M98 0v1458h314q90 0 153.5 -23t116.5 -79q54 -57 74 -131.5t20 -210.5q0 -107 -12.5 -173t-46.5 -120q-94 -152 -303 -152h-107v-569h-209zM307 766h101q80 0 117 29t46 77t9 140q0 88 -8 137t-43 81t-113 32h-109v-496z" />
<glyph unicode="Q" horiz-adv-x="872" d="M86 344v770q0 113 50 193.5t131 121.5t169 41t169 -41t131 -121.5t50 -193.5v-770q0 -84 -30 -149l129 -105l-107 -127l-123 100q-93 -75 -219 -75q-88 0 -169 41t-131 121.5t-50 193.5zM295 344q0 -72 40.5 -109.5t100.5 -37.5q26 0 45 8l-94 76l107 127l84 -68v4v770 q0 49 -19 82t-51.5 49.5t-71.5 16.5q-60 0 -100.5 -38t-40.5 -110v-770z" />
<glyph unicode="R" horiz-adv-x="872" d="M98 0v1458h336q185 0 277 -106.5t92 -321.5q0 -131 -41.5 -221t-138.5 -143l225 -666h-221l-195 623h-125v-623h-209zM307 807h119q70 0 106.5 25t49 75.5t12.5 126.5q0 80 -13.5 129t-52.5 74t-112 25h-109v-455z" />
<glyph unicode="S" horiz-adv-x="831" d="M57 334v78h209v-66q0 -63 36.5 -106t111.5 -43q67 0 100 25t42 69.5t9 122.5q0 80 -8.5 118.5t-31.5 58.5t-81 44l-149 61q-89 37 -138 88.5t-69 120.5t-20 166q0 112 40 203t121.5 143.5t196.5 52.5q101 0 180 -47t123.5 -123.5t44.5 -158.5v-103h-209v47 q0 80 -35.5 128.5t-111.5 48.5q-142 0 -142 -189q0 -62 7.5 -94.5t33.5 -56t78 -43.5l160 -64q89 -34 137 -86t65 -125.5t17 -187.5q0 -428 -360 -428q-101 0 -182.5 45.5t-128 124.5t-46.5 176z" />
<glyph unicode="T" horiz-adv-x="680" d="M-6 1262v196h692v-196h-242v-1262h-208v1262h-242z" />
<glyph unicode="U" horiz-adv-x="872" d="M98 328v1130h209v-1110q0 -74 35.5 -112.5t93.5 -38.5t93.5 38.5t35.5 112.5v1110h209v-1130q0 -141 -98.5 -240.5t-239.5 -99.5q-139 0 -238.5 99.5t-99.5 240.5z" />
<glyph unicode="V" horiz-adv-x="834" d="M27 1458h221l166 -1018h4l168 1018h221l-299 -1458h-184z" />
<glyph unicode="W" horiz-adv-x="1214" d="M33 1458h221l104 -926h4l164 926h160l170 -948h4l101 948h221l-217 -1458h-197l-160 946h-4l-158 -946h-196z" />
<glyph unicode="X" horiz-adv-x="797" d="M-4 0l295 764l-273 694h222l157 -432l160 432h221l-278 -694l301 -764h-221l-183 492l-180 -492h-221z" />
<glyph unicode="Y" horiz-adv-x="795" d="M6 1458h221l168 -579h4l168 579h221l-286 -842v-616h-209v616z" />
<glyph unicode="Z" horiz-adv-x="682" d="M31 0v184l393 1078h-373v196h600v-166l-401 -1095h401v-197h-620z" />
<glyph unicode="[" horiz-adv-x="455" d="M119 -205v1663h319v-123h-135v-1417h135v-123h-319z" />
<glyph unicode="\" horiz-adv-x="455" d="M10 1470h164l270 -1482h-163z" />
<glyph unicode="]" horiz-adv-x="455" d="M16 -82h136v1417h-136v123h320v-1663h-320v123z" />
<glyph unicode="^" horiz-adv-x="1229" d="M102 580l445 878h135l444 -878h-163l-349 694l-348 -694h-164z" />
<glyph unicode="_" horiz-adv-x="1024" d="M0 -154h1024v-102h-1024v102z" />
<glyph unicode="`" horiz-adv-x="381" d="M-82 1464h221l185 -288h-136z" />
<glyph unicode="a" d="M51 264q0 126 29 201.5t101 113t200 37.5q19 0 29.5 -1t26.5 -2t44 -3v109q0 123 -104 123q-42 0 -76.5 -29t-42.5 -76h-203q9 140 95 226q88 88 227 88q90 0 160.5 -37t111.5 -111.5t41 -179.5v-723h-209v106h-4q-46 -63 -88.5 -90.5t-112.5 -27.5q-90 0 -157.5 61.5 t-67.5 214.5zM260 305q0 -60 29.5 -96.5t79.5 -36.5q53 0 82.5 35.5t29.5 97.5v141q-31 7 -57 7q-164 0 -164 -148z" />
<glyph unicode="b" horiz-adv-x="797" d="M86 0v1458h209v-514h4q71 107 193 107q127 0 186 -95q20 -30 26.5 -81t6.5 -170v-396q0 -157 -35 -223q-53 -98 -182 -98q-36 0 -65.5 8t-52 22.5t-42 34.5t-39.5 41v-94h-209zM295 326q0 -57 29 -93t75 -36q53 0 78 38t25 103v381q0 123 -103 123q-44 0 -74 -32t-30 -81 v-403z" />
<glyph unicode="c" d="M98 348v342q0 137 39 211q23 42 64 77.5t94.5 54t114.5 18.5q94 0 165 -43t108.5 -117.5t37.5 -171.5h-209q0 61 -27 92t-75 31q-49 0 -76 -31t-27 -88v-424q0 -47 27.5 -74.5t75.5 -27.5q93 0 102 104h209q0 -134 -84 -221q-89 -92 -227 -92q-92 0 -163.5 40t-109.5 109 q-39 74 -39 211z" />
<glyph unicode="d" horiz-adv-x="797" d="M86 309v396q0 108 6.5 163t26.5 88q59 95 186 95q122 0 193 -107h4v514h209v-1458h-209v94q-50 -56 -89.5 -81t-109.5 -25q-129 0 -182 98q-35 63 -35 223zM295 338q0 -64 25.5 -102.5t76.5 -38.5q48 0 76.5 35.5t28.5 93.5v403q0 49 -30 81t-75 32q-102 0 -102 -123 v-381z" />
<glyph unicode="e" d="M68 348v342q0 139 38 211q39 70 110 110t163 40t163.5 -42.5t109.5 -116.5t38 -165v-287h-414v-141q0 -47 27.5 -74.5t75.5 -27.5q93 0 102 104h209q0 -134 -84 -221q-89 -92 -227 -92q-92 0 -163.5 40.5t-109.5 108.5q-38 72 -38 211zM276 604h205v119q0 57 -27 88 t-75 31q-49 0 -76 -31t-27 -88v-119z" />
<glyph unicode="f" horiz-adv-x="455" d="M10 874v164h103v142q0 93 38 157t99.5 92.5t130.5 28.5h96v-196h-94q-29 0 -45 -19t-16 -53v-152h155v-164h-155v-874h-209v874h-103z" />
<glyph unicode="g" horiz-adv-x="797" d="M86 -121h209q2 -40 31 -71t80 -31q49 0 72.5 30.5t23.5 81.5v205h-4q-71 -106 -195 -106q-129 0 -182 98q-35 63 -35 223v396q0 108 6.5 163t26.5 88q59 95 186 95q70 0 109 -25.5t88 -81.5v94h209v-1165q0 -76 -34 -146t-105 -114.5t-175 -44.5q-71 0 -136.5 30 t-113.5 100t-61 181zM295 319q0 -122 102 -122q45 0 75 32t30 80v404q0 58 -28.5 93.5t-76.5 35.5q-51 0 -76.5 -38t-25.5 -104v-381z" />
<glyph unicode="h" horiz-adv-x="797" d="M86 0v1458h209v-520h4q74 113 197 113q89 0 152 -62t63 -192v-797h-209v719q0 58 -27 90.5t-76 32.5q-55 0 -79.5 -35.5t-24.5 -108.5v-698h-209z" />
<glyph unicode="i" horiz-adv-x="381" d="M86 0v1038h209v-1038h-209zM86 1249v209h209v-209h-209z" />
<glyph unicode="j" horiz-adv-x="381" d="M-45 -223q53 0 80 16.5t39 55.5t12 118v1071h209v-1149q0 -99 -43 -168.5t-120.5 -105t-176.5 -35.5v197zM86 1249v209h209v-209h-209z" />
<glyph unicode="k" horiz-adv-x="797" d="M86 0v1458h209v-872h4l252 452h209l-248 -422l299 -616h-227l-189 449l-100 -158v-291h-209z" />
<glyph unicode="l" horiz-adv-x="381" d="M74 279v1179h209v-1165q0 -58 20.5 -79.5t81.5 -29.5v-196q-105 0 -171.5 23.5t-103 87t-36.5 180.5z" />
<glyph unicode="m" horiz-adv-x="1212" d="M86 0v1038h209v-100h4q74 113 197 113q110 0 186 -105q47 52 94 78.5t123 26.5q58 0 109.5 -26t84.5 -82.5t33 -145.5v-797h-208v719q0 58 -27 90.5t-76 32.5q-56 0 -80 -35.5t-24 -108.5v-698h-209v719q0 58 -27 90.5t-76 32.5q-55 0 -79.5 -35.5t-24.5 -108.5v-698 h-209z" />
<glyph unicode="n" horiz-adv-x="797" d="M86 0v1038h209v-100h4q74 113 197 113q89 0 152 -62t63 -192v-797h-209v719q0 58 -27 90.5t-76 32.5q-55 0 -79.5 -35.5t-24.5 -108.5v-698h-209z" />
<glyph unicode="o" d="M68 348v342q0 139 38 211q39 70 110 110t163 40t163.5 -40.5t108.5 -109.5q39 -71 39 -211v-342q0 -140 -39 -211q-36 -68 -108 -108.5t-164 -40.5t-163.5 40.5t-109.5 108.5q-38 72 -38 211zM276 315q0 -56 27 -87t76 -31q48 0 75 31t27 87v408q0 57 -27 88t-75 31 q-49 0 -76 -31t-27 -88v-408z" />
<glyph unicode="p" horiz-adv-x="797" d="M86 -420v1458h209v-94q53 59 91 83t108 24q128 0 182 -99q35 -66 35 -223v-395q0 -119 -6.5 -170t-26.5 -82q-60 -94 -186 -94q-122 0 -193 106h-4v-514h-209zM295 309q0 -48 30 -80t74 -32q103 0 103 122v381q0 66 -25 104t-78 38q-46 0 -75 -36t-29 -93v-404z" />
<glyph unicode="q" horiz-adv-x="797" d="M86 334v395q0 160 35 223q54 99 182 99q70 0 110 -25.5t89 -81.5v94h209v-1458h-209v514h-4q-71 -106 -193 -106q-70 0 -112.5 24t-73.5 70q-20 35 -26.5 89.5t-6.5 162.5zM295 319q0 -122 102 -122q45 0 75 32t30 80v404q0 58 -28.5 93.5t-76.5 35.5q-51 0 -76.5 -38 t-25.5 -104v-381z" />
<glyph unicode="r" horiz-adv-x="569" d="M86 0v1038h209v-110q73 65 133.5 94t142.5 29v-222q-29 13 -63 13q-80 0 -146.5 -55t-66.5 -171v-616h-209z" />
<glyph unicode="s" horiz-adv-x="721" d="M49 301h197q16 -117 112 -117q46 0 81.5 31.5t35.5 81.5q0 45 -23.5 75.5t-80.5 51.5l-101 37q-101 39 -156 112t-55 175q0 86 41.5 155.5t113 108.5t153.5 39q85 0 151.5 -40t104 -108.5t39.5 -154.5h-197q-1 49 -32 77.5t-75 28.5q-46 0 -74 -30t-28 -74q0 -33 17 -59 t71 -48l123 -49q76 -29 121.5 -73.5t64.5 -99t19 -120.5q0 -86 -40.5 -158t-112 -113.5t-159.5 -41.5q-128 0 -216.5 82.5t-94.5 230.5z" />
<glyph unicode="t" horiz-adv-x="418" d="M-18 874v164h104v316h209v-316h129v-164h-129v-575q0 -47 13 -68.5t39.5 -27.5t76.5 -6v-197h-86q-130 0 -191 73.5t-61 170.5v630h-104z" />
<glyph unicode="u" horiz-adv-x="797" d="M86 242v796h209v-719q0 -57 27 -89.5t75 -32.5q56 0 80.5 35.5t24.5 107.5v698h209v-1038h-209v100h-4q-74 -112 -197 -112q-89 0 -152 62.5t-63 191.5z" />
<glyph unicode="v" horiz-adv-x="721" d="M-2 1038h221l139 -663h4l140 663h221l-270 -1038h-185z" />
<glyph unicode="w" horiz-adv-x="1098" d="M2 1038h221l127 -645h4l117 645h164l110 -645h5l124 645h222l-246 -1038h-184l-115 616h-4l-115 -616h-184z" />
<glyph unicode="x" horiz-adv-x="680" d="M-23 0l256 530l-243 508h221l129 -295l129 295h221l-248 -508l260 -530h-221l-141 317l-141 -317h-222z" />
<glyph unicode="y" horiz-adv-x="721" d="M-2 1038h221l143 -647h5l141 647h215l-299 -1218q-21 -88 -65 -142t-101 -76t-123 -22h-57v197h47q45 0 70 18t44 72t44 180z" />
<glyph unicode="z" horiz-adv-x="645" d="M35 0v166l338 688h-312v184h549v-166l-338 -675h338v-197h-575z" />
<glyph unicode="{" horiz-adv-x="455" d="M6 567v123q36 0 66.5 29.5t47.5 82t17 118.5v311q0 69 27 121t72 79t102 27h111v-123h-37q-90 0 -90 -135v-309q0 -121 -44 -187t-98 -75v-4q34 -7 66 -34.5t54 -84.5t22 -146v-305q0 -137 90 -137h37v-123h-111q-86 0 -143.5 61.5t-57.5 166.5v309q0 68 -17 121.5 t-47.5 83.5t-66.5 30z" />
<glyph unicode="|" horiz-adv-x="455" d="M145 -12v1482h164v-1482h-164z" />
<glyph unicode="}" horiz-adv-x="455" d="M6 -82h37q90 0 90 137v305q0 89 22 146.5t53.5 84.5t65.5 34v4q-32 5 -64 34t-54.5 85.5t-22.5 142.5v309q0 135 -90 135h-37v123h111q84 0 142 -62t58 -165v-311q0 -100 37 -165t95 -65v-123q-36 0 -67 -30t-48 -83.5t-17 -121.5v-309q0 -104 -58 -166t-142 -62h-111 v123z" />
<glyph unicode="~" horiz-adv-x="1229" d="M141 492q43 81 103 129.5t153 48.5q85 0 228 -68q38 -17 77 -34.5t73.5 -28.5t58.5 -11q54 0 95 39t85 109l73 -133q-93 -178 -256 -178q-86 0 -227 67q-93 42 -132.5 58t-76.5 16q-54 0 -91 -35t-89 -111z" />
<glyph unicode="&#xa1;" horiz-adv-x="492" d="M115 -420l80 1098h102l80 -1098h-262zM141 829v209h209v-209h-209z" />
<glyph unicode="&#xa2;" horiz-adv-x="762" d="M70 342v352q0 140 39 211q34 62 93 100.5t134 45.5v153h84v-153q125 -10 198.5 -101.5t73.5 -230.5h-209q0 100 -63 123v-645q55 19 63 104h209q0 -139 -84 -225q-76 -79 -188 -88v-172h-84v172q-76 6 -134 43.5t-93 99.5q-39 71 -39 211zM279 291q0 -74 57 -94v645 q-24 -8 -41 -39q-16 -30 -16 -72v-440z" />
<glyph unicode="&#xa3;" horiz-adv-x="762" d="M27 610v146h112q-42 81 -60 147.5t-18 163.5q0 175 83 289t249 114q71 0 141.5 -36t116 -112.5t45.5 -184.5v-93h-196v82q0 65 -26 106.5t-87 41.5q-67 0 -98 -57t-31 -152q0 -137 66 -309h237v-146h-190q19 -52 28 -88.5t9 -91.5q0 -110 -66 -223q22 -3 60 -10t60 -10 t48 -3q40 0 71.5 13t63.5 53l139 -141q-47 -66 -100.5 -93.5t-126.5 -27.5q-30 0 -164.5 19.5t-183.5 19.5q-42 0 -89.5 -11t-72.5 -22v176q21 12 59 25t72 16q55 80 55 178q0 103 -47 221h-159z" />
<glyph unicode="&#xa4;" horiz-adv-x="762" d="M8 438l86 86q-33 36 -52 90t-19 115q0 130 69 205l-84 86l84 84l84 -86q37 32 91.5 50.5t113.5 18.5q128 0 207 -69l84 86l82 -84l-84 -84q69 -79 69 -207q0 -62 -18.5 -116t-50.5 -89l84 -84l-84 -84l-84 84q-75 -69 -205 -69q-59 0 -113 19t-92 52l-84 -86zM158 729 q0 -60 30 -111.5t81.5 -81.5t111.5 -30t111.5 30t81.5 81.5t30 111.5q0 46 -17 86.5t-47.5 71t-71 48t-87.5 17.5q-60 0 -111.5 -30t-81.5 -81.5t-30 -111.5z" />
<glyph unicode="&#xa5;" horiz-adv-x="762" d="M8 1458h209l162 -579h4l162 579h209l-242 -735h201v-135h-234v-101h234v-135h-234v-352h-196v352h-234v135h234v101h-234v135h201z" />
<glyph unicode="&#xa6;" horiz-adv-x="455" d="M145 -12v563h164v-563h-164zM145 907v563h164v-563h-164z" />
<glyph unicode="&#xa7;" d="M68 530q0 121 15.5 187.5t55 102.5t117.5 61q-65 32 -96.5 67t-41 80.5t-9.5 126.5q0 153 80 234t200 81q70 0 133.5 -32t103.5 -96t40 -152v-94h-174v86q0 51 -27 88t-76 37q-59 0 -82.5 -39.5t-23.5 -110.5q0 -51 5.5 -77t23.5 -45t67 -50l199 -129q37 -22 59 -47 t34 -60t15.5 -84.5t3.5 -134.5q0 -111 -10.5 -164t-48 -90.5t-119.5 -74.5q68 -35 100.5 -69.5t43 -83t10.5 -136.5q0 -87 -10.5 -138.5t-41.5 -95.5q-35 -50 -99 -80t-134 -30q-103 0 -169 45.5t-95 113.5t-29 134v86h174v-84q0 -55 32.5 -93t80.5 -38q61 0 89 38t28 121 q0 76 -13 106t-53 54l-242 148q-55 33 -78.5 72.5t-30.5 96t-7 162.5zM276 436q0 -43 30 -75.5t73 -32.5q42 0 72 32.5t30 75.5v203q0 44 -30 76.5t-72 32.5q-43 0 -73 -32.5t-30 -76.5v-203z" />
<glyph unicode="&#xa8;" horiz-adv-x="381" d="M-68 1200v209h185v-209h-185zM264 1200v209h185v-209h-185z" />
<glyph unicode="&#xa9;" horiz-adv-x="1638" d="M78 729q0 149 58 286t159.5 238.5t238.5 159t285 57.5q149 0 286 -57.5t238.5 -159t159.5 -238.5t58 -286t-58 -286t-159.5 -238.5t-238.5 -159t-286 -57.5q-148 0 -285 57.5t-238.5 159t-159.5 238.5t-58 286zM225 729q0 -165 80 -304t216.5 -220.5t297.5 -81.5 q160 0 297.5 81.5t217 220.5t79.5 304q0 124 -46 235t-128.5 195t-190.5 130t-229 46q-120 0 -228 -46t-191 -130.5t-129 -196t-46 -233.5zM408 729q0 205 116.5 334t315.5 129q144 0 246.5 -82t121.5 -227h-135q-17 74 -81 124t-150 50q-89 0 -154 -42.5t-99 -116.5 t-34 -165q0 -84 36.5 -161t104 -123t150.5 -46q86 0 149.5 52.5t77.5 132.5h135q-13 -71 -46 -130.5t-81.5 -102t-108 -65t-126.5 -22.5q-97 0 -177 34.5t-140 99.5t-90.5 149t-30.5 178z" />
<glyph unicode="&#xaa;" horiz-adv-x="492" d="M29 999q0 73 20 121.5t68.5 72.5t132.5 24q7 0 25.5 -1.5t39.5 -3.5v50q0 73 -67 73q-68 0 -76 -61h-135q6 91 61 143q59 53 150 53q58 0 107 -22.5t78.5 -66.5t29.5 -107v-434h-148v63h-4q-29 -37 -56 -54.5t-73 -17.5q-62 0 -107.5 38t-45.5 130zM176 1022 q0 -59 66 -59q33 0 53 19t20 50v76q-28 4 -36 4q-103 0 -103 -90z" />
<glyph unicode="&#xab;" horiz-adv-x="872" d="M20 567l416 414v-209l-207 -205l207 -205v-208zM399 567l416 414v-209l-207 -205l207 -205v-208z" />
<glyph unicode="&#xac;" horiz-adv-x="1229" d="M96 641v164h1037v-574h-164v410h-873z" />
<glyph unicode="&#xad;" horiz-adv-x="797" d="M90 463v209h617v-209h-617z" />
<glyph unicode="&#xae;" horiz-adv-x="1638" d="M78 729q0 149 58 286t159.5 238.5t238.5 159t285 57.5q149 0 286 -57.5t238.5 -159t159.5 -238.5t58 -286t-58 -286t-159.5 -238.5t-238.5 -159t-286 -57.5q-148 0 -285 57.5t-238.5 159t-159.5 238.5t-58 286zM225 729q0 -165 80 -304t216.5 -220.5t297.5 -81.5 q160 0 297.5 81.5t217 220.5t79.5 304q0 124 -46 235t-128.5 195t-190.5 130t-229 46q-120 0 -228 -46t-191 -130.5t-129 -196t-46 -233.5zM539 297v864h327q297 0 297 -243q0 -114 -60.5 -172.5t-160.5 -69.5l248 -379h-164l-248 375h-104v-375h-135zM674 795h153 q69 0 113 13t66 41.5t22 74.5q0 59 -42 86.5t-116 27.5h-196v-243z" />
<glyph unicode="&#xaf;" horiz-adv-x="381" d="M-90 1243v123h561v-123h-561z" />
<glyph unicode="&#xb0;" horiz-adv-x="532" d="M37 1241q0 64 30.5 116t82.5 82.5t116 30.5q63 0 115.5 -30.5t83.5 -82.5t31 -116t-31 -116t-83.5 -82.5t-115.5 -30.5q-64 0 -116 30.5t-82.5 82.5t-30.5 116zM141 1241q0 -52 36.5 -88.5t88.5 -36.5q51 0 88 37t37 88t-37 88t-88 37q-52 0 -88.5 -36.5t-36.5 -88.5z " />
<glyph unicode="&#xb1;" horiz-adv-x="1229" d="M96 0v164h1037v-164h-1037zM96 543v164h436v329h164v-329h437v-164h-437v-330h-164v330h-436z" />
<glyph unicode="&#xb2;" horiz-adv-x="496" d="M23 588v110l262 435q24 41 24 79v48q0 28 -20 45.5t-43 17.5t-41.5 -16.5t-18.5 -46.5v-64h-163v74q0 56 29.5 102t80.5 72t115 26q62 0 113.5 -24t81.5 -66t30 -96v-67q0 -53 -11.5 -84t-35.5 -70l-195 -328h242v-147h-450z" />
<glyph unicode="&#xb3;" horiz-adv-x="496" d="M23 772v70h163v-47q0 -30 17 -49t45 -19q25 0 43 19t18 42v107q0 46 -21 61t-83 15v135q61 0 82 14t22 56v86q0 26 -16.5 43.5t-44.5 17.5q-30 0 -46 -20t-16 -41v-54h-163v66q0 58 29 102t81.5 69t118.5 25q106 0 163.5 -60.5t57.5 -143.5v-84q0 -52 -16 -83t-68 -59 q47 -27 65.5 -61t18.5 -88v-105q0 -54 -24 -100.5t-75 -76t-126 -29.5q-95 0 -160 47t-65 145z" />
<glyph unicode="&#xb4;" horiz-adv-x="381" d="M57 1176l185 288h221l-270 -288h-136z" />
<glyph unicode="&#xb5;" horiz-adv-x="797" d="M86 -420v1458h209v-719q0 -57 27 -89.5t75 -32.5q56 0 80.5 35.5t24.5 107.5v698h209v-1038h-209v100h-4q-26 -53 -66 -86q-35 -26 -70 -26q-43 0 -63 20h-4v-428h-209z" />
<glyph unicode="&#xb6;" horiz-adv-x="909" d="M16 1065q0 129 55.5 217.5t156.5 132t235 43.5h352v-1878h-147v1774h-148v-1774h-147v1104q-87 0 -170.5 51.5t-135 140t-51.5 189.5z" />
<glyph unicode="&#xb8;" horiz-adv-x="381" d="M-31 -420l35 86q83 -31 133 -31q43 0 77 19t34 65q0 36 -26.5 57t-65.5 21q-44 0 -80 -14l-35 41l133 176h94l-94 -123q42 4 64 4q91 0 132.5 -47t41.5 -106q0 -93 -77 -140t-175 -47q-82 0 -191 39z" />
<glyph unicode="&#xb9;" horiz-adv-x="496" d="M55 1223v147l135 88h164v-870h-164v723z" />
<glyph unicode="&#xba;" horiz-adv-x="492" d="M37 1034v234q0 58 25.5 104t73 72t110.5 26t110.5 -26t73 -72t25.5 -104v-234q0 -90 -57.5 -146.5t-151.5 -56.5t-151.5 57.5t-57.5 145.5zM184 1036q0 -69 62 -69q61 0 61 69v228q0 71 -61 71q-62 0 -62 -71v-228z" />
<glyph unicode="&#xbb;" horiz-adv-x="872" d="M57 154v208l207 205l-207 205v209l416 -414zM436 154v208l207 205l-207 205v209l416 -414z" />
<glyph unicode="&#xbc;" horiz-adv-x="1137" d="M23 1223v147l135 88h164v-870h-164v723zM37 -35l895 1528h123l-895 -1528h-123zM596 127v127l201 620h164l-193 -612h121v236h164v-236h61v-135h-61v-127h-164v127h-293z" />
<glyph unicode="&#xbd;" horiz-adv-x="1137" d="M23 1223v147l135 88h164v-870h-164v723zM37 -35l895 1528h123l-895 -1528h-123zM659 0v111l267 434q24 41 24 80v47q0 28 -19 45.5t-44 17.5q-28 0 -46 -16.5t-18 -46.5v-64h-164v74q0 86 65.5 143.5t164.5 57.5q59 0 111.5 -24t83 -66.5t30.5 -96.5v-67q0 -53 -11.5 -84 t-35.5 -70l-195 -328h242v-147h-455z" />
<glyph unicode="&#xbe;" horiz-adv-x="1137" d="M23 772v70h163v-47q0 -30 17 -49t45 -19q25 0 43 19t18 42v107q0 46 -21 61t-83 15v135q61 0 82 14t22 56v86q0 26 -16.5 43.5t-44.5 17.5q-30 0 -46 -20t-16 -41v-54h-163v66q0 58 29 102t81.5 69t118.5 25q106 0 163.5 -60.5t57.5 -143.5v-84q0 -52 -16 -83t-68 -59 q47 -27 65.5 -61t18.5 -88v-105q0 -54 -24 -100.5t-75 -76t-126 -29.5q-95 0 -160 47t-65 145zM76 -35l895 1528h123l-895 -1528h-123zM596 127v127l201 620h164l-193 -612h121v236h164v-236h61v-135h-61v-127h-164v127h-293z" />
<glyph unicode="&#xbf;" d="M66 -66q0 99 6.5 150.5t25.5 83.5l142 242q34 60 34 104v164h209v-191q0 -81 -51 -165l-131 -213q-27 -47 -27 -119v-109q0 -43 29.5 -73.5t73.5 -30.5q41 0 73.5 28.5t32.5 75.5v119h209v-121q0 -84 -42 -155.5t-114.5 -113.5t-158.5 -42q-74 0 -137 30.5t-105 86.5 q-42 58 -55.5 108t-13.5 141zM274 829v209h209v-209h-209z" />
<glyph unicode="&#xc0;" horiz-adv-x="834" d="M4 0l326 1458h174l325 -1458h-208l-62 313h-285l-61 -313h-209zM145 1812h221l185 -288h-136zM311 510h209l-102 528h-4z" />
<glyph unicode="&#xc1;" horiz-adv-x="834" d="M4 0l326 1458h174l325 -1458h-208l-62 313h-285l-61 -313h-209zM284 1524l185 288h221l-270 -288h-136zM311 510h209l-102 528h-4z" />
<glyph unicode="&#xc2;" horiz-adv-x="834" d="M4 0l326 1458h174l325 -1458h-208l-62 313h-285l-61 -313h-209zM121 1524l200 288h193l200 -288h-159l-138 194l-137 -194h-159zM311 510h209l-102 528h-4z" />
<glyph unicode="&#xc3;" horiz-adv-x="834" d="M4 0l326 1458h174l325 -1458h-208l-62 313h-285l-61 -313h-209zM69 1542q22 106 68.5 166.5t138.5 60.5q38 0 158 -41t137 -41q42 0 65 25.5t25 67.5h105q-20 -106 -68 -167t-139 -61q-31 0 -151 41t-144 41q-40 0 -64 -25t-26 -67h-105zM311 510h209l-102 528h-4z" />
<glyph unicode="&#xc4;" horiz-adv-x="834" d="M4 0l326 1458h174l325 -1458h-208l-62 313h-285l-61 -313h-209zM159 1548v209h185v-209h-185zM311 510h209l-102 528h-4zM491 1548v209h185v-209h-185z" />
<glyph unicode="&#xc5;" horiz-adv-x="834" d="M4 0l326 1458h174l325 -1458h-208l-62 313h-285l-61 -313h-209zM209 1710q0 57 28 104.5t75.5 76t104.5 28.5q55 0 104 -28.5t77 -76.5t28 -104q0 -57 -28 -105t-76 -76t-105 -28q-85 0 -146.5 62.5t-61.5 146.5zM293 1710q0 -51 37 -88t87 -37q51 0 88 37t37 88 q0 52 -36.5 88.5t-88.5 36.5q-51 0 -87.5 -36.5t-36.5 -88.5zM311 510h209l-102 528h-4z" />
<glyph unicode="&#xc6;" horiz-adv-x="1251" d="M4 0l414 1458h796v-196h-413v-428h360v-197h-360v-428h413v-209h-622v313h-287l-80 -313h-221zM354 510h238v752h-49z" />
<glyph unicode="&#xc7;" horiz-adv-x="834" d="M86 332v803q0 94 43 171t120.5 120.5t176.5 43.5q94 0 171 -44.5t121 -125t44 -178.5v-82h-209v70q0 64 -35 108t-94 44q-74 0 -101.5 -43.5t-27.5 -126.5v-746q0 -149 127 -149q52 0 91.5 34.5t39.5 112.5v72h209v-90q0 -120 -77.5 -215t-195.5 -119l-88 -115q42 4 64 4 q91 0 132.5 -47t41.5 -106q0 -63 -37.5 -105t-95.5 -62t-119 -20q-81 0 -190 39l34 86q83 -31 134 -31q43 0 76.5 19t33.5 65q0 36 -26.5 57t-65.5 21q-42 0 -80 -14l-35 41l125 164q-128 10 -217.5 92.5t-89.5 251.5z" />
<glyph unicode="&#xc8;" d="M98 0v1458h623v-196h-414v-428h361v-197h-361v-428h414v-209h-623zM127 1812h221l185 -288h-136z" />
<glyph unicode="&#xc9;" d="M98 0v1458h623v-196h-414v-428h361v-197h-361v-428h414v-209h-623zM266 1524l185 288h221l-270 -288h-136z" />
<glyph unicode="&#xca;" d="M98 0v1458h623v-196h-414v-428h361v-197h-361v-428h414v-209h-623zM103 1524l200 288h193l200 -288h-159l-138 194l-137 -194h-159z" />
<glyph unicode="&#xcb;" d="M98 0v1458h623v-196h-414v-428h361v-197h-361v-428h414v-209h-623zM141 1548v209h185v-209h-185zM473 1548v209h185v-209h-185z" />
<glyph unicode="&#xcc;" horiz-adv-x="418" d="M-64 1812h221l185 -288h-136zM104 0v1458h209v-1458h-209z" />
<glyph unicode="&#xcd;" horiz-adv-x="418" d="M75 1524l185 288h221l-270 -288h-136zM104 0v1458h209v-1458h-209z" />
<glyph unicode="&#xce;" horiz-adv-x="418" d="M-88 1524l200 288h193l200 -288h-159l-138 194l-137 -194h-159zM104 0v1458h209v-1458h-209z" />
<glyph unicode="&#xcf;" horiz-adv-x="418" d="M-50 1548v209h185v-209h-185zM104 0v1458h209v-1458h-209zM282 1548v209h185v-209h-185z" />
<glyph unicode="&#xd0;" horiz-adv-x="872" d="M0 717v135h98v606h310q115 0 198 -45t125.5 -129.5t42.5 -202.5v-682q0 -134 -44.5 -223t-130 -132.5t-210.5 -43.5h-291v717h-98zM307 197h96q87 0 124.5 43.5t37.5 138.5v702q0 91 -36.5 136t-125.5 45h-96v-410h144v-135h-144v-520z" />
<glyph unicode="&#xd1;" horiz-adv-x="909" d="M90 0v1458h201l315 -878h4v878h209v-1458h-196l-320 877h-4v-877h-209zM106 1542q22 106 68.5 166.5t138.5 60.5q38 0 158 -41t137 -41q42 0 65 25.5t25 67.5h105q-20 -106 -68 -167t-139 -61q-31 0 -151 41t-144 41q-40 0 -64 -25t-26 -67h-105z" />
<glyph unicode="&#xd2;" horiz-adv-x="872" d="M86 344v770q0 113 50 193.5t131 121.5t169 41t169 -41t131 -121.5t50 -193.5v-770q0 -113 -50 -193.5t-131 -121.5t-169 -41t-169 41t-131 121.5t-50 193.5zM164 1812h221l185 -288h-136zM295 344q0 -72 40.5 -109.5t100.5 -37.5q39 0 71 16t51.5 48.5t19.5 82.5v770 q0 49 -19 82t-51.5 49.5t-71.5 16.5q-60 0 -100.5 -38t-40.5 -110v-770z" />
<glyph unicode="&#xd3;" horiz-adv-x="872" d="M86 344v770q0 113 50 193.5t131 121.5t169 41t169 -41t131 -121.5t50 -193.5v-770q0 -113 -50 -193.5t-131 -121.5t-169 -41t-169 41t-131 121.5t-50 193.5zM295 344q0 -72 40.5 -109.5t100.5 -37.5q39 0 71 16t51.5 48.5t19.5 82.5v770q0 49 -19 82t-51.5 49.5 t-71.5 16.5q-60 0 -100.5 -38t-40.5 -110v-770zM303 1524l185 288h221l-270 -288h-136z" />
<glyph unicode="&#xd4;" horiz-adv-x="872" d="M86 344v770q0 113 50 193.5t131 121.5t169 41t169 -41t131 -121.5t50 -193.5v-770q0 -113 -50 -193.5t-131 -121.5t-169 -41t-169 41t-131 121.5t-50 193.5zM140 1524l200 288h193l200 -288h-159l-138 194l-137 -194h-159zM295 344q0 -72 40.5 -109.5t100.5 -37.5 q39 0 71 16t51.5 48.5t19.5 82.5v770q0 49 -19 82t-51.5 49.5t-71.5 16.5q-60 0 -100.5 -38t-40.5 -110v-770z" />
<glyph unicode="&#xd5;" horiz-adv-x="872" d="M86 344v770q0 113 50 193.5t131 121.5t169 41t169 -41t131 -121.5t50 -193.5v-770q0 -113 -50 -193.5t-131 -121.5t-169 -41t-169 41t-131 121.5t-50 193.5zM88 1542q22 106 68.5 166.5t138.5 60.5q38 0 158 -41t137 -41q42 0 65 25.5t25 67.5h105q-20 -106 -68 -167 t-139 -61q-31 0 -151 41t-144 41q-40 0 -64 -25t-26 -67h-105zM295 344q0 -72 40.5 -109.5t100.5 -37.5q39 0 71 16t51.5 48.5t19.5 82.5v770q0 49 -19 82t-51.5 49.5t-71.5 16.5q-60 0 -100.5 -38t-40.5 -110v-770z" />
<glyph unicode="&#xd6;" horiz-adv-x="872" d="M86 344v770q0 113 50 193.5t131 121.5t169 41t169 -41t131 -121.5t50 -193.5v-770q0 -113 -50 -193.5t-131 -121.5t-169 -41t-169 41t-131 121.5t-50 193.5zM178 1548v209h185v-209h-185zM295 344q0 -72 40.5 -109.5t100.5 -37.5q39 0 71 16t51.5 48.5t19.5 82.5v770 q0 49 -19 82t-51.5 49.5t-71.5 16.5q-60 0 -100.5 -38t-40.5 -110v-770zM510 1548v209h185v-209h-185z" />
<glyph unicode="&#xd7;" horiz-adv-x="1229" d="M137 158l363 360l-363 363l117 114l360 -360l363 360l115 -114l-361 -363l361 -360l-115 -117l-363 362l-360 -362z" />
<glyph unicode="&#xd8;" horiz-adv-x="872" d="M20 -33l103 211q-37 70 -37 166v770q0 113 50 193.5t131 121.5t169 41q43 0 91 -12t89.5 -35t75.5 -59l82 172l78 -45l-102 -211q36 -70 36 -166v-770q0 -113 -50 -193.5t-131 -121.5t-169 -41q-157 0 -256 106l-82 -172zM295 334q3 -65 42.5 -101t98.5 -36q39 0 71 16 t51.5 48.5t19.5 82.5v576h-5zM295 537h4l279 587q-4 67 -44 102.5t-98 35.5q-60 0 -100.5 -38t-40.5 -110v-577z" />
<glyph unicode="&#xd9;" horiz-adv-x="872" d="M98 328v1130h209v-1110q0 -74 35.5 -112.5t93.5 -38.5t93.5 38.5t35.5 112.5v1110h209v-1130q0 -141 -98.5 -240.5t-239.5 -99.5q-139 0 -238.5 99.5t-99.5 240.5zM164 1812h221l185 -288h-136z" />
<glyph unicode="&#xda;" horiz-adv-x="872" d="M98 328v1130h209v-1110q0 -74 35.5 -112.5t93.5 -38.5t93.5 38.5t35.5 112.5v1110h209v-1130q0 -141 -98.5 -240.5t-239.5 -99.5q-139 0 -238.5 99.5t-99.5 240.5zM303 1524l185 288h221l-270 -288h-136z" />
<glyph unicode="&#xdb;" horiz-adv-x="872" d="M98 328v1130h209v-1110q0 -74 35.5 -112.5t93.5 -38.5t93.5 38.5t35.5 112.5v1110h209v-1130q0 -141 -98.5 -240.5t-239.5 -99.5q-139 0 -238.5 99.5t-99.5 240.5zM140 1524l200 288h193l200 -288h-159l-138 194l-137 -194h-159z" />
<glyph unicode="&#xdc;" horiz-adv-x="872" d="M98 328v1130h209v-1110q0 -74 35.5 -112.5t93.5 -38.5t93.5 38.5t35.5 112.5v1110h209v-1130q0 -141 -98.5 -240.5t-239.5 -99.5q-139 0 -238.5 99.5t-99.5 240.5zM178 1548v209h185v-209h-185zM510 1548v209h185v-209h-185z" />
<glyph unicode="&#xdd;" horiz-adv-x="795" d="M6 1458h221l168 -579h4l168 579h221l-286 -842v-616h-209v616zM264 1524l185 288h221l-270 -288h-136z" />
<glyph unicode="&#xde;" horiz-adv-x="834" d="M98 0v1458h209v-254h105q90 0 153.5 -23t116.5 -79q54 -57 74 -131.5t20 -210.5q0 -107 -12.5 -173t-46.5 -120q-94 -152 -303 -152h-107v-315h-209zM307 512h101q80 0 117 29t46 77t9 140q0 88 -8 137t-43 81t-113 32h-109v-496z" />
<glyph unicode="&#xdf;" horiz-adv-x="797" d="M86 0v1130q0 146 78.5 243t230.5 97q168 0 242 -99.5t74 -272.5q0 -111 -23.5 -158.5t-97.5 -95.5q59 -32 90 -82.5t31 -126.5v-361q0 -119 -40 -182t-105.5 -83.5t-153.5 -20.5v196q47 0 68.5 22.5t21.5 82.5v389q0 38 -21.5 52.5t-68.5 14.5v185q49 0 69.5 16.5 t20.5 63.5v164q0 48 -21.5 74t-77.5 26q-58 0 -83 -40t-25 -140v-1094h-209z" />
<glyph unicode="&#xe0;" d="M51 264q0 126 29 201.5t101 113t200 37.5q19 0 29.5 -1t26.5 -2t44 -3v109q0 123 -104 123q-42 0 -76.5 -29t-42.5 -76h-203q9 140 95 226q88 88 227 88q90 0 160.5 -37t111.5 -111.5t41 -179.5v-723h-209v106h-4q-46 -63 -88.5 -90.5t-112.5 -27.5q-90 0 -157.5 61.5 t-67.5 214.5zM106 1464h221l185 -288h-136zM260 305q0 -60 29.5 -96.5t79.5 -36.5q53 0 82.5 35.5t29.5 97.5v141q-31 7 -57 7q-164 0 -164 -148z" />
<glyph unicode="&#xe1;" d="M51 264q0 126 29 201.5t101 113t200 37.5q19 0 29.5 -1t26.5 -2t44 -3v109q0 123 -104 123q-42 0 -76.5 -29t-42.5 -76h-203q9 140 95 226q88 88 227 88q90 0 160.5 -37t111.5 -111.5t41 -179.5v-723h-209v106h-4q-46 -63 -88.5 -90.5t-112.5 -27.5q-90 0 -157.5 61.5 t-67.5 214.5zM245 1176l185 288h221l-270 -288h-136zM260 305q0 -60 29.5 -96.5t79.5 -36.5q53 0 82.5 35.5t29.5 97.5v141q-31 7 -57 7q-164 0 -164 -148z" />
<glyph unicode="&#xe2;" d="M51 264q0 126 29 201.5t101 113t200 37.5q19 0 29.5 -1t26.5 -2t44 -3v109q0 123 -104 123q-42 0 -76.5 -29t-42.5 -76h-203q9 140 95 226q88 88 227 88q90 0 160.5 -37t111.5 -111.5t41 -179.5v-723h-209v106h-4q-46 -63 -88.5 -90.5t-112.5 -27.5q-90 0 -157.5 61.5 t-67.5 214.5zM82 1176l200 288h193l200 -288h-159l-138 194l-137 -194h-159zM260 305q0 -60 29.5 -96.5t79.5 -36.5q53 0 82.5 35.5t29.5 97.5v141q-31 7 -57 7q-164 0 -164 -148z" />
<glyph unicode="&#xe3;" d="M30 1194q22 106 68.5 166.5t138.5 60.5q38 0 158 -41t137 -41q42 0 65 25.5t25 67.5h105q-20 -106 -68 -167t-139 -61q-31 0 -151 41t-144 41q-40 0 -64 -25t-26 -67h-105zM51 264q0 126 29 201.5t101 113t200 37.5q19 0 29.5 -1t26.5 -2t44 -3v109q0 123 -104 123 q-42 0 -76.5 -29t-42.5 -76h-203q9 140 95 226q88 88 227 88q90 0 160.5 -37t111.5 -111.5t41 -179.5v-723h-209v106h-4q-46 -63 -88.5 -90.5t-112.5 -27.5q-90 0 -157.5 61.5t-67.5 214.5zM260 305q0 -60 29.5 -96.5t79.5 -36.5q53 0 82.5 35.5t29.5 97.5v141q-31 7 -57 7 q-164 0 -164 -148z" />
<glyph unicode="&#xe4;" d="M51 264q0 126 29 201.5t101 113t200 37.5q19 0 29.5 -1t26.5 -2t44 -3v109q0 123 -104 123q-42 0 -76.5 -29t-42.5 -76h-203q9 140 95 226q88 88 227 88q90 0 160.5 -37t111.5 -111.5t41 -179.5v-723h-209v106h-4q-46 -63 -88.5 -90.5t-112.5 -27.5q-90 0 -157.5 61.5 t-67.5 214.5zM120 1200v209h185v-209h-185zM260 305q0 -60 29.5 -96.5t79.5 -36.5q53 0 82.5 35.5t29.5 97.5v141q-31 7 -57 7q-164 0 -164 -148zM452 1200v209h185v-209h-185z" />
<glyph unicode="&#xe5;" d="M51 264q0 126 29 201.5t101 113t200 37.5q19 0 29.5 -1t26.5 -2t44 -3v109q0 123 -104 123q-42 0 -76.5 -29t-42.5 -76h-203q9 140 95 226q88 88 227 88q90 0 160.5 -37t111.5 -111.5t41 -179.5v-723h-209v106h-4q-46 -63 -88.5 -90.5t-112.5 -27.5q-90 0 -157.5 61.5 t-67.5 214.5zM170 1352q0 57 28 104.5t75.5 76t104.5 28.5q55 0 104 -28.5t77 -76.5t28 -104q0 -57 -28 -105t-76 -76t-105 -28q-85 0 -146.5 62.5t-61.5 146.5zM254 1352q0 -51 37 -88t87 -37q51 0 88 37t37 88q0 52 -36.5 88.5t-88.5 36.5q-51 0 -87.5 -36.5t-36.5 -88.5z M260 305q0 -60 29.5 -96.5t79.5 -36.5q53 0 82.5 35.5t29.5 97.5v141q-31 7 -57 7q-164 0 -164 -148z" />
<glyph unicode="&#xe6;" horiz-adv-x="1171" d="M51 264q0 126 29 201.5t101 113t200 37.5q19 0 29.5 -1t26.5 -2t44 -3v109q0 123 -104 123q-42 0 -76.5 -29t-42.5 -76h-203q6 93 47 164t111.5 110.5t163.5 39.5q119 0 207 -74q38 34 93.5 54t115.5 20q92 0 163.5 -42.5t109.5 -116.5t38 -165v-287h-414v-141 q0 -47 27.5 -74.5t75.5 -27.5q93 0 102 104h209q0 -89 -40 -160t-111 -111.5t-160 -41.5q-97 0 -168 41t-105 106q-35 -72 -99.5 -109.5t-144.5 -37.5q-90 0 -157.5 61.5t-67.5 214.5zM260 305q0 -60 29.5 -96.5t79.5 -36.5q53 0 82.5 35.5t29.5 97.5v141q-31 7 -57 7 q-164 0 -164 -148zM690 604h205v119q0 57 -27 88t-75 31q-49 0 -76 -31t-27 -88v-119z" />
<glyph unicode="&#xe7;" d="M98 348v342q0 137 39 211q23 42 64 77.5t94.5 54t114.5 18.5q94 0 165 -43t108.5 -117.5t37.5 -171.5h-209q0 61 -27 92t-75 31q-49 0 -76 -31t-27 -88v-424q0 -47 27.5 -74.5t75.5 -27.5q93 0 102 104h209q0 -134 -84 -221q-73 -76 -186 -88l-89 -115q42 4 64 4 q91 0 132.5 -47t41.5 -106q0 -63 -37.5 -105t-95.5 -62t-119 -20q-81 0 -190 39l35 86q83 -31 133 -31q43 0 76.5 19t33.5 65q0 36 -26.5 57t-65.5 21q-42 0 -80 -14l-35 41l129 168q-154 21 -221 145q-39 74 -39 211z" />
<glyph unicode="&#xe8;" d="M68 348v342q0 139 38 211q39 70 110 110t163 40t163.5 -42.5t109.5 -116.5t38 -165v-287h-414v-141q0 -47 27.5 -74.5t75.5 -27.5q93 0 102 104h209q0 -134 -84 -221q-89 -92 -227 -92q-92 0 -163.5 40.5t-109.5 108.5q-38 72 -38 211zM106 1464h221l185 -288h-136z M276 604h205v119q0 57 -27 88t-75 31q-49 0 -76 -31t-27 -88v-119z" />
<glyph unicode="&#xe9;" d="M68 348v342q0 139 38 211q39 70 110 110t163 40t163.5 -42.5t109.5 -116.5t38 -165v-287h-414v-141q0 -47 27.5 -74.5t75.5 -27.5q93 0 102 104h209q0 -134 -84 -221q-89 -92 -227 -92q-92 0 -163.5 40.5t-109.5 108.5q-38 72 -38 211zM245 1176l185 288h221l-270 -288 h-136zM276 604h205v119q0 57 -27 88t-75 31q-49 0 -76 -31t-27 -88v-119z" />
<glyph unicode="&#xea;" d="M68 348v342q0 139 38 211q39 70 110 110t163 40t163.5 -42.5t109.5 -116.5t38 -165v-287h-414v-141q0 -47 27.5 -74.5t75.5 -27.5q93 0 102 104h209q0 -134 -84 -221q-89 -92 -227 -92q-92 0 -163.5 40.5t-109.5 108.5q-38 72 -38 211zM82 1176l200 288h193l200 -288 h-159l-138 194l-137 -194h-159zM276 604h205v119q0 57 -27 88t-75 31q-49 0 -76 -31t-27 -88v-119z" />
<glyph unicode="&#xeb;" d="M68 348v342q0 139 38 211q39 70 110 110t163 40t163.5 -42.5t109.5 -116.5t38 -165v-287h-414v-141q0 -47 27.5 -74.5t75.5 -27.5q93 0 102 104h209q0 -134 -84 -221q-89 -92 -227 -92q-92 0 -163.5 40.5t-109.5 108.5q-38 72 -38 211zM120 1200v209h185v-209h-185z M276 604h205v119q0 57 -27 88t-75 31q-49 0 -76 -31t-27 -88v-119zM452 1200v209h185v-209h-185z" />
<glyph unicode="&#xec;" horiz-adv-x="381" d="M-82 1464h221l185 -288h-136zM86 0v1038h209v-1038h-209z" />
<glyph unicode="&#xed;" horiz-adv-x="381" d="M57 1176l185 288h221l-270 -288h-136zM86 0v1038h209v-1038h-209z" />
<glyph unicode="&#xee;" horiz-adv-x="381" d="M-106 1176l200 288h193l200 -288h-159l-138 194l-137 -194h-159zM86 0v1038h209v-1038h-209z" />
<glyph unicode="&#xef;" horiz-adv-x="381" d="M-68 1200v209h185v-209h-185zM86 0v1038h209v-1038h-209zM264 1200v209h185v-209h-185z" />
<glyph unicode="&#xf0;" d="M68 348v342q0 139 38 211q39 70 110 110t163 40q17 0 31 -3.5t26 -10t22.5 -14.5t18.5 -19l4 4q-35 150 -96 227l-152 -72l-57 82l141 66q-56 48 -157 88l170 90q96 -34 164 -96l139 65l57 -82l-129 -59q71 -92 100 -216t29 -265v-488q0 -140 -39 -211 q-36 -68 -108 -108.5t-164 -40.5t-163.5 40.5t-109.5 108.5q-38 72 -38 211zM276 315q0 -56 27 -87t76 -31q48 0 75 31t27 87v408q0 57 -27 88t-75 31q-49 0 -76 -31t-27 -88v-408z" />
<glyph unicode="&#xf1;" horiz-adv-x="797" d="M51 1194q22 106 68.5 166.5t138.5 60.5q38 0 158 -41t137 -41q42 0 65 25.5t25 67.5h105q-20 -106 -68 -167t-139 -61q-31 0 -151 41t-144 41q-40 0 -64 -25t-26 -67h-105zM86 0v1038h209v-100h4q74 113 197 113q89 0 152 -62t63 -192v-797h-209v719q0 58 -27 90.5 t-76 32.5q-55 0 -79.5 -35.5t-24.5 -108.5v-698h-209z" />
<glyph unicode="&#xf2;" d="M68 348v342q0 139 38 211q39 70 110 110t163 40t163.5 -40.5t108.5 -109.5q39 -71 39 -211v-342q0 -140 -39 -211q-36 -68 -108 -108.5t-164 -40.5t-163.5 40.5t-109.5 108.5q-38 72 -38 211zM106 1464h221l185 -288h-136zM276 315q0 -56 27 -87t76 -31q48 0 75 31t27 87 v408q0 57 -27 88t-75 31q-49 0 -76 -31t-27 -88v-408z" />
<glyph unicode="&#xf3;" d="M68 348v342q0 139 38 211q39 70 110 110t163 40t163.5 -40.5t108.5 -109.5q39 -71 39 -211v-342q0 -140 -39 -211q-36 -68 -108 -108.5t-164 -40.5t-163.5 40.5t-109.5 108.5q-38 72 -38 211zM245 1176l185 288h221l-270 -288h-136zM276 315q0 -56 27 -87t76 -31 q48 0 75 31t27 87v408q0 57 -27 88t-75 31q-49 0 -76 -31t-27 -88v-408z" />
<glyph unicode="&#xf4;" d="M68 348v342q0 139 38 211q39 70 110 110t163 40t163.5 -40.5t108.5 -109.5q39 -71 39 -211v-342q0 -140 -39 -211q-36 -68 -108 -108.5t-164 -40.5t-163.5 40.5t-109.5 108.5q-38 72 -38 211zM82 1176l200 288h193l200 -288h-159l-138 194l-137 -194h-159zM276 315 q0 -56 27 -87t76 -31q48 0 75 31t27 87v408q0 57 -27 88t-75 31q-49 0 -76 -31t-27 -88v-408z" />
<glyph unicode="&#xf5;" d="M30 1194q22 106 68.5 166.5t138.5 60.5q38 0 158 -41t137 -41q42 0 65 25.5t25 67.5h105q-20 -106 -68 -167t-139 -61q-31 0 -151 41t-144 41q-40 0 -64 -25t-26 -67h-105zM68 348v342q0 139 38 211q39 70 110 110t163 40t163.5 -40.5t108.5 -109.5q39 -71 39 -211v-342 q0 -140 -39 -211q-36 -68 -108 -108.5t-164 -40.5t-163.5 40.5t-109.5 108.5q-38 72 -38 211zM276 315q0 -56 27 -87t76 -31q48 0 75 31t27 87v408q0 57 -27 88t-75 31q-49 0 -76 -31t-27 -88v-408z" />
<glyph unicode="&#xf6;" d="M68 348v342q0 139 38 211q39 70 110 110t163 40t163.5 -40.5t108.5 -109.5q39 -71 39 -211v-342q0 -140 -39 -211q-36 -68 -108 -108.5t-164 -40.5t-163.5 40.5t-109.5 108.5q-38 72 -38 211zM120 1200v209h185v-209h-185zM276 315q0 -56 27 -87t76 -31q48 0 75 31t27 87 v408q0 57 -27 88t-75 31q-49 0 -76 -31t-27 -88v-408zM452 1200v209h185v-209h-185z" />
<glyph unicode="&#xf7;" horiz-adv-x="1229" d="M96 436v164h1037v-164h-1037zM483 94q0 55 39 93t92 38q55 0 93 -38t38 -93q0 -53 -38 -92t-93 -39q-53 0 -92 39t-39 92zM483 942q0 55 39 93t92 38q55 0 93 -38t38 -93q0 -54 -38.5 -92.5t-92.5 -38.5q-52 0 -91.5 38.5t-39.5 92.5z" />
<glyph unicode="&#xf8;" d="M8 -25l101 170q-41 82 -41 179v391q0 147 84 241.5t227 94.5q134 0 217 -86l84 141l70 -43l-101 -170q41 -80 41 -178v-391q0 -148 -84 -242t-227 -94q-136 0 -217 86l-84 -142zM276 428h5l194 334q-6 39 -30.5 59.5t-65.5 20.5q-49 0 -76 -31t-27 -88v-295zM283 276 q12 -79 96 -79q48 0 75 31t27 87v295h-4z" />
<glyph unicode="&#xf9;" horiz-adv-x="797" d="M86 242v796h209v-719q0 -57 27 -89.5t75 -32.5q56 0 80.5 35.5t24.5 107.5v698h209v-1038h-209v100h-4q-74 -112 -197 -112q-89 0 -152 62.5t-63 191.5zM127 1464h221l185 -288h-136z" />
<glyph unicode="&#xfa;" horiz-adv-x="797" d="M86 242v796h209v-719q0 -57 27 -89.5t75 -32.5q56 0 80.5 35.5t24.5 107.5v698h209v-1038h-209v100h-4q-74 -112 -197 -112q-89 0 -152 62.5t-63 191.5zM266 1176l185 288h221l-270 -288h-136z" />
<glyph unicode="&#xfb;" horiz-adv-x="797" d="M86 242v796h209v-719q0 -57 27 -89.5t75 -32.5q56 0 80.5 35.5t24.5 107.5v698h209v-1038h-209v100h-4q-74 -112 -197 -112q-89 0 -152 62.5t-63 191.5zM103 1176l200 288h193l200 -288h-159l-138 194l-137 -194h-159z" />
<glyph unicode="&#xfc;" horiz-adv-x="797" d="M86 242v796h209v-719q0 -57 27 -89.5t75 -32.5q56 0 80.5 35.5t24.5 107.5v698h209v-1038h-209v100h-4q-74 -112 -197 -112q-89 0 -152 62.5t-63 191.5zM141 1200v209h185v-209h-185zM473 1200v209h185v-209h-185z" />
<glyph unicode="&#xfd;" horiz-adv-x="721" d="M-2 1038h221l143 -647h5l141 647h215l-299 -1218q-21 -88 -65 -142t-101 -76t-123 -22h-57v197h47q45 0 70 18t44 72t44 180zM227 1176l185 288h221l-270 -288h-136z" />
<glyph unicode="&#xfe;" horiz-adv-x="797" d="M86 -420v1878h209v-514q53 59 91 83t108 24q128 0 182 -99q35 -66 35 -223v-395q0 -119 -6.5 -170t-26.5 -82q-60 -94 -186 -94q-122 0 -193 106h-4v-514h-209zM295 309q0 -48 30 -80t74 -32q103 0 103 122v381q0 66 -25 104t-78 38q-46 0 -75 -36t-29 -93v-404z" />
<glyph unicode="&#xff;" horiz-adv-x="721" d="M-2 1038h221l143 -647h5l141 647h215l-299 -1218q-21 -88 -65 -142t-101 -76t-123 -22h-57v197h47q45 0 70 18t44 72t44 180zM102 1200v209h185v-209h-185zM434 1200v209h185v-209h-185z" />
<glyph unicode="&#x152;" horiz-adv-x="1249" d="M98 334v790q0 70 21 132.5t62 111t100 75.5t131 27q63 0 106.5 -23.5t67.5 -62.5h4v74h622v-196h-413v-428h360v-197h-360v-428h413v-209h-622v70h-4q-26 -35 -76 -58.5t-98 -23.5q-72 0 -131 28t-100 76.5t-62 110t-21 131.5zM307 324q0 -63 40 -107.5t102 -44.5 q61 0 101 44.5t40 107.5v811q0 63 -39 107t-102 44q-64 0 -103 -44t-39 -107v-811z" />
<glyph unicode="&#x153;" horiz-adv-x="1171" d="M68 348v342q0 139 38 211q39 70 110 110t163 40q60 0 116.5 -20t90.5 -50q79 70 207 70q92 0 163.5 -42.5t109.5 -116.5t38 -165v-287h-414v-141q0 -47 27.5 -74.5t75.5 -27.5q93 0 102 104h209q0 -134 -84 -221q-89 -92 -227 -92q-59 0 -119.5 18t-95.5 53 q-76 -71 -199 -71q-92 0 -163.5 40.5t-109.5 108.5q-38 72 -38 211zM276 315q0 -56 27 -87t76 -31q48 0 75 31t27 87v408q0 57 -27 88t-75 31q-49 0 -76 -31t-27 -88v-408zM690 604h205v119q0 57 -27 88t-75 31q-49 0 -76 -31t-27 -88v-119z" />
<glyph unicode="&#x178;" horiz-adv-x="795" d="M6 1458h221l168 -579h4l168 579h221l-286 -842v-616h-209v616zM139 1548v209h185v-209h-185zM471 1548v209h185v-209h-185z" />
<glyph unicode="&#x2c6;" horiz-adv-x="381" d="M-106 1176l200 288h193l200 -288h-159l-138 194l-137 -194h-159z" />
<glyph unicode="&#x2dc;" horiz-adv-x="381" d="M-158 1194q22 106 68.5 166.5t138.5 60.5q38 0 158 -41t137 -41q42 0 65 25.5t25 67.5h105q-20 -106 -68 -167t-139 -61q-31 0 -151 41t-144 41q-40 0 -64 -25t-26 -67h-105z" />
<glyph unicode="&#x2000;" horiz-adv-x="959" />
<glyph unicode="&#x2001;" horiz-adv-x="1919" />
<glyph unicode="&#x2002;" horiz-adv-x="959" />
<glyph unicode="&#x2003;" horiz-adv-x="1919" />
<glyph unicode="&#x2004;" horiz-adv-x="639" />
<glyph unicode="&#x2005;" horiz-adv-x="479" />
<glyph unicode="&#x2006;" horiz-adv-x="319" />
<glyph unicode="&#x2007;" horiz-adv-x="319" />
<glyph unicode="&#x2008;" horiz-adv-x="239" />
<glyph unicode="&#x2009;" horiz-adv-x="383" />
<glyph unicode="&#x200a;" horiz-adv-x="106" />
<glyph unicode="&#x2010;" horiz-adv-x="797" d="M90 463v209h617v-209h-617z" />
<glyph unicode="&#x2011;" horiz-adv-x="797" d="M90 463v209h617v-209h-617z" />
<glyph unicode="&#x2012;" horiz-adv-x="797" d="M90 463v209h617v-209h-617z" />
<glyph unicode="&#x2013;" horiz-adv-x="1024" d="M0 469v197h1024v-197h-1024z" />
<glyph unicode="&#x2014;" horiz-adv-x="2048" d="M0 469v197h2048v-197h-2048z" />
<glyph unicode="&#x2018;" horiz-adv-x="381" d="M86 1098v209l209 151v-360h-209z" />
<glyph unicode="&#x2019;" horiz-adv-x="381" d="M86 1098v360h209v-209z" />
<glyph unicode="&#x201a;" horiz-adv-x="381" d="M86 -152v361h209v-209z" />
<glyph unicode="&#x201c;" horiz-adv-x="569" d="M37 1098v209l209 151v-360h-209zM324 1098v209l208 151v-360h-208z" />
<glyph unicode="&#x201d;" horiz-adv-x="569" d="M37 1098v360h209v-209zM324 1098v360h208v-209z" />
<glyph unicode="&#x201e;" horiz-adv-x="569" d="M37 -152v361h209v-209zM324 -152v361h208v-209z" />
<glyph unicode="&#x2022;" horiz-adv-x="1024" d="M147 729q0 99 49 183t133 133t183 49q76 0 141 -27.5t117 -79.5t79.5 -117t27.5 -141q0 -99 -49.5 -183t-133.5 -132.5t-182 -48.5t-182 48.5t-133.5 132.5t-49.5 183z" />
<glyph unicode="&#x2026;" horiz-adv-x="2048" d="M238 0v209h208v-209h-208zM920 0v209h208v-209h-208zM1602 0v209h208v-209h-208z" />
<glyph unicode="&#x202f;" horiz-adv-x="383" />
<glyph unicode="&#x2039;" horiz-adv-x="494" d="M20 567l416 414v-209l-207 -205l207 -205v-208z" />
<glyph unicode="&#x203a;" horiz-adv-x="494" d="M57 154v208l207 205l-207 205v209l416 -414z" />
<glyph unicode="&#x205f;" horiz-adv-x="479" />
<glyph unicode="&#x2122;" horiz-adv-x="2028" d="M80 1323v135h668v-135h-261v-709h-147v709h-260zM850 614v844h233l240 -616l240 616h233v-844h-147v709h-4l-281 -709h-84l-279 709h-4v-709h-147z" />
<glyph unicode="&#x2219;" horiz-adv-x="381" d="M59 610q0 55 39 93t92 38q54 0 93 -38t39 -93q0 -53 -39 -92t-93 -39q-53 0 -92 39t-39 92z" />
<glyph unicode="&#x25fc;" horiz-adv-x="1040" d="M0 0v1040h1040v-1040h-1040z" />
</font>
</defs>
</svg>
